<?xml version="1.0" encoding="UTF-8" standalone="no"?>
<!-- Created with Inkscape (http://www.inkscape.org/) -->

<svg
   width="61mm"
   height="61mm"
   viewBox="0 0 61 61"
   version="1.1"
   id="svg2192"
   xmlns="http://www.w3.org/2000/svg"
   xmlns:svg="http://www.w3.org/2000/svg">
  <defs
     id="defs2189">
    <clipPath
       clipPathUnits="userSpaceOnUse"
       id="clipPath2071">
      <path
         d="M 67,68 H 238 V 239 H 67 Z"
         id="path2069" />
    </clipPath>
    <clipPath
       clipPathUnits="userSpaceOnUse"
       id="clipPath2077">
      <path
         d="m 67.188,153.316 c 0,46.946 38.054,85.004 85,85.004 46.945,0 85,-38.058 85,-85.004 0,-46.941 -38.055,-85 -85,-85 -46.946,0 -85,38.059 -85,85"
         id="path2075" />
    </clipPath>
    <clipPath
       clipPathUnits="userSpaceOnUse"
       id="clipPath2087">
      <path
         d="M 0,0 H 801 V 801 H 0 Z"
         id="path2085" />
    </clipPath>
    <clipPath
       clipPathUnits="userSpaceOnUse"
       id="clipPath2059">
      <path
         d="M 0,0 H 801 V 801 H 0 Z"
         id="path2057" />
    </clipPath>
    <clipPath
       clipPathUnits="userSpaceOnUse"
       id="clipPath1523">
      <path
         d="M 315,68 H 485 V 239 H 315 Z"
         id="path1521" />
    </clipPath>
    <clipPath
       clipPathUnits="userSpaceOnUse"
       id="clipPath1529">
      <path
         d="m 315,153.316 c 0,46.946 38.055,85.004 85,85.004 46.945,0 85,-38.058 85,-85.004 0,-46.941 -38.055,-85 -85,-85 -46.945,0 -85,38.059 -85,85"
         id="path1527" />
    </clipPath>
    <clipPath
       clipPathUnits="userSpaceOnUse"
       id="clipPath1537">
      <path
         d="M 0,0 H 801 V 801 H 0 Z"
         id="path1535" />
    </clipPath>
    <clipPath
       clipPathUnits="userSpaceOnUse"
       id="clipPath1541">
      <path
         d="m 372.238,152.656 h 11.043 v 27.809 h -11.043 z"
         id="path1539" />
    </clipPath>
    <clipPath
       clipPathUnits="userSpaceOnUse"
       id="clipPath1545">
      <path
         d="M 0,0 H 801 V 801 H 0 Z"
         id="path1543" />
    </clipPath>
    <clipPath
       clipPathUnits="userSpaceOnUse"
       id="clipPath1549">
      <path
         d="m 372.238,152.656 h 11.043 v 27.809 h -11.043 z"
         id="path1547" />
    </clipPath>
    <clipPath
       clipPathUnits="userSpaceOnUse"
       id="clipPath1553">
      <path
         d="M 0,0 H 801 V 801 H 0 Z"
         id="path1551" />
    </clipPath>
    <clipPath
       clipPathUnits="userSpaceOnUse"
       id="clipPath1557">
      <path
         d="m 412.062,150.66 h 11.402 v 29.406 h -11.402 z"
         id="path1555" />
    </clipPath>
    <clipPath
       clipPathUnits="userSpaceOnUse"
       id="clipPath1561">
      <path
         d="M 0,0 H 801 V 801 H 0 Z"
         id="path1559" />
    </clipPath>
    <clipPath
       clipPathUnits="userSpaceOnUse"
       id="clipPath1565">
      <path
         d="m 412.062,150.656 h 11.402 v 29.41 h -11.402 z"
         id="path1563" />
    </clipPath>
    <clipPath
       clipPathUnits="userSpaceOnUse"
       id="clipPath1569">
      <path
         d="M 0,0 H 801 V 801 H 0 Z"
         id="path1567" />
    </clipPath>
    <clipPath
       clipPathUnits="userSpaceOnUse"
       id="clipPath1573">
      <path
         d="m 367.738,154.387 h 9.379 v 25.461 h -9.379 z"
         id="path1571" />
    </clipPath>
    <clipPath
       clipPathUnits="userSpaceOnUse"
       id="clipPath1577">
      <path
         d="M 0,0 H 801 V 801 H 0 Z"
         id="path1575" />
    </clipPath>
    <clipPath
       clipPathUnits="userSpaceOnUse"
       id="clipPath1581">
      <path
         d="m 367.738,154.387 h 9.379 v 25.461 h -9.379 z"
         id="path1579" />
    </clipPath>
    <clipPath
       clipPathUnits="userSpaceOnUse"
       id="clipPath1585">
      <path
         d="M 0,0 H 801 V 801 H 0 Z"
         id="path1583" />
    </clipPath>
    <clipPath
       clipPathUnits="userSpaceOnUse"
       id="clipPath1589">
      <path
         d="m 405.746,151.125 h 10.91 v 26.945 h -10.91 z"
         id="path1587" />
    </clipPath>
    <clipPath
       clipPathUnits="userSpaceOnUse"
       id="clipPath1593">
      <path
         d="M 0,0 H 801 V 801 H 0 Z"
         id="path1591" />
    </clipPath>
    <clipPath
       clipPathUnits="userSpaceOnUse"
       id="clipPath1597">
      <path
         d="m 405.746,151.125 h 10.91 v 26.945 h -10.91 z"
         id="path1595" />
    </clipPath>
    <clipPath
       clipPathUnits="userSpaceOnUse"
       id="clipPath1601">
      <path
         d="M 0,0 H 801 V 801 H 0 Z"
         id="path1599" />
    </clipPath>
    <clipPath
       clipPathUnits="userSpaceOnUse"
       id="clipPath1435">
      <path
         d="M 563,68 H 734 V 239 H 563 Z"
         id="path1433" />
    </clipPath>
    <clipPath
       clipPathUnits="userSpaceOnUse"
       id="clipPath1441">
      <path
         d="m 563.395,153.316 c 0,46.946 38.054,85.004 84.996,85.004 46.945,0 85.004,-38.058 85.004,-85.004 0,-46.941 -38.059,-85 -85.004,-85 -46.942,0 -84.996,38.059 -84.996,85"
         id="path1439" />
    </clipPath>
    <clipPath
       clipPathUnits="userSpaceOnUse"
       id="clipPath1451">
      <path
         d="M 0,0 H 801 V 801 H 0 Z"
         id="path1449" />
    </clipPath>
    <clipPath
       clipPathUnits="userSpaceOnUse"
       id="clipPath1509">
      <path
         d="M 0,0 H 801 V 801 H 0 Z"
         id="path1507" />
    </clipPath>
    <clipPath
       clipPathUnits="userSpaceOnUse"
       id="clipPath1869">
      <path
         d="M 67,288 H 238 V 459 H 67 Z"
         id="path1867" />
    </clipPath>
    <clipPath
       clipPathUnits="userSpaceOnUse"
       id="clipPath1875">
      <path
         d="m 67.188,373.852 c 0,46.945 38.054,85 85,85 46.945,0 85,-38.055 85,-85 0,-46.946 -38.055,-85 -85,-85 -46.946,0 -85,38.054 -85,85"
         id="path1873" />
    </clipPath>
    <clipPath
       clipPathUnits="userSpaceOnUse"
       id="clipPath1885">
      <path
         d="M 0,0 H 801 V 801 H 0 Z"
         id="path1883" />
    </clipPath>
    <clipPath
       clipPathUnits="userSpaceOnUse"
       id="clipPath2135">
      <path
         d="M 315,288 H 485 V 459 H 315 Z"
         id="path2133" />
    </clipPath>
    <clipPath
       clipPathUnits="userSpaceOnUse"
       id="clipPath2141">
      <path
         d="m 315,373.852 c 0,46.945 38.055,85 85,85 46.945,0 85,-38.055 85,-85 0,-46.946 -38.055,-85 -85,-85 -46.945,0 -85,38.054 -85,85"
         id="path2139" />
    </clipPath>
    <clipPath
       clipPathUnits="userSpaceOnUse"
       id="clipPath2151">
      <path
         d="M 0,0 H 801 V 801 H 0 Z"
         id="path2149" />
    </clipPath>
  </defs>
  <g
     id="layer1">
    <path
       d="m 60.568144,30.653804 c 0,-16.560094 -13.426369,-29.9861102 -29.98611,-29.9861102 -16.561152,0 -29.98611047,13.4260162 -29.98611047,29.9861102 0,16.561152 13.42495847,29.987169 29.98611047,29.987169 16.559741,0 29.98611,-13.426017 29.98611,-29.987169"
       style="fill:#dd5877;fill-opacity:1;fill-rule:nonzero;stroke:none;stroke-width:0.352778"
       id="path1357" />
    <g
       id="g2129"
       transform="matrix(0.35277777,0,0,0.35277777,-110.409,-101.25365)">
      <g
         id="g2131"
         clip-path="url(#clipPath2135)">
        <g
           id="g2137"
           clip-path="url(#clipPath2141)">
          <g
             id="g2143">
            <g
               id="g2145">
              <g
                 id="g2147"
                 clip-path="url(#clipPath2151)">
                <g
                   id="g2153">
                  <path
                     d="m 445.648,402.883 c 0,-33.113 -21.082,-59.953 -47.086,-59.953 -26.007,0 -47.085,26.84 -47.085,59.953 0,33.105 21.078,59.949 47.085,59.949 26.004,0 47.086,-26.844 47.086,-59.949"
                     style="fill:#f7eada;fill-opacity:1;fill-rule:nonzero;stroke:none"
                     id="path2155" />
                  <path
                     d="m 429.039,361.414 c 0,-15.937 -26,-18.734 -26,-18.734 h -8.949 c 0,0 -26.004,2.797 -26.004,18.734 0,15.938 -0.281,34.953 7.547,48.93 7.828,13.98 6.711,33.551 22.929,34.672 16.215,-1.121 15.098,-20.692 22.926,-34.672 7.828,-13.977 7.551,-32.992 7.551,-48.93"
                     style="fill:#a7654f;fill-opacity:1;fill-rule:nonzero;stroke:none"
                     id="path2157" />
                  <path
                     d="m 417.609,333.688 c 0,0 21.871,-4.985 20.192,-21.762 7.273,14.816 -3.633,26.281 -12.86,32.992"
                     style="fill:#ffffff;fill-opacity:1;fill-rule:nonzero;stroke:none"
                     id="path2159" />
                  <path
                     d="m 379.367,333.688 c 0,0 -21.871,-4.985 -20.195,-21.762 -7.27,14.816 3.637,26.281 12.863,32.992"
                     style="fill:#ffffff;fill-opacity:1;fill-rule:nonzero;stroke:none"
                     id="path2161" />
                  <path
                     d="m 422.301,349.723 c 0,0 11.043,-13.844 28.801,-10.067 -2.239,9.09 -8.11,17.477 -22.372,20.832"
                     style="fill:#a7654f;fill-opacity:1;fill-rule:nonzero;stroke:none"
                     id="path2163" />
                  <path
                     d="m 425.113,353.129 c 0,0 11.399,-10.102 20.532,-8.16 -1.145,4.676 -10.321,13.051 -17.661,14.777"
                     style="fill:#f7eada;fill-opacity:1;fill-rule:nonzero;stroke:none"
                     id="path2165" />
                  <path
                     d="m 374.559,349.723 c 0,0 -11.043,-13.844 -28.801,-10.067 2.238,9.09 8.109,17.477 22.371,20.832"
                     style="fill:#a7654f;fill-opacity:1;fill-rule:nonzero;stroke:none"
                     id="path2167" />
                  <path
                     d="m 371.742,353.129 c 0,0 -11.398,-10.102 -20.531,-8.16 1.148,4.676 10.324,13.051 17.664,14.777"
                     style="fill:#f7eada;fill-opacity:1;fill-rule:nonzero;stroke:none"
                     id="path2169" />
                  <path
                     d="m 406.949,398.742 c 0,-13.98 0.422,-27.262 12.164,-38.797 11.742,-11.535 8.25,-20.34 1.399,-26.422 -6.848,-6.082 -16.918,-5.035 -21.95,-5.035 -5.031,0 -15.101,-1.047 -21.949,5.035 -6.851,6.082 -10.347,14.887 1.399,26.422 11.742,11.535 12.164,24.817 12.164,38.797 0,10.797 -6.992,17.055 -11.324,21.949 -4.336,4.895 -1.891,14.536 3.144,14.536 h 33.133 c 5.035,0 7.476,-9.641 3.144,-14.536 -4.335,-4.894 -11.324,-11.152 -11.324,-21.949"
                     style="fill:#ffffff;fill-opacity:1;fill-rule:nonzero;stroke:none"
                     id="path2171" />
                  <path
                     d="m 425.285,370.629 c 0,0 -12.371,-3.586 -12.09,8.992 0,0 12.09,4.391 12.09,-8.992"
                     style="fill:#ffffff;fill-opacity:1;fill-rule:nonzero;stroke:none"
                     id="path2173" />
                  <path
                     d="m 415.18,374.527 c 0,1.657 1.343,3 3,3 1.656,0 3,-1.343 3,-3 0,-1.656 -1.344,-3 -3,-3 -1.657,0 -3,1.344 -3,3"
                     style="fill:#191009;fill-opacity:1;fill-rule:nonzero;stroke:none"
                     id="path2175" />
                  <path
                     d="m 416.773,374.25 c 0,0.391 0.313,0.707 0.7,0.707 0.39,0 0.703,-0.316 0.703,-0.707 0,-0.387 -0.313,-0.703 -0.703,-0.703 -0.387,0 -0.7,0.316 -0.7,0.703"
                     style="fill:#ffffff;fill-opacity:1;fill-rule:nonzero;stroke:none"
                     id="path2177" />
                  <path
                     d="m 371.375,370.629 c 0,0 12.371,-3.586 12.094,8.992 0,0 -12.094,4.391 -12.094,-8.992"
                     style="fill:#ffffff;fill-opacity:1;fill-rule:nonzero;stroke:none"
                     id="path2179" />
                  <path
                     d="m 381.484,374.527 c 0,1.657 -1.339,3 -3,3 -1.656,0 -3,-1.343 -3,-3 0,-1.656 1.344,-3 3,-3 1.661,0 3,1.344 3,3"
                     style="fill:#191009;fill-opacity:1;fill-rule:nonzero;stroke:none"
                     id="path2181" />
                  <path
                     d="m 379.891,374.25 c 0,0.391 -0.317,0.707 -0.703,0.707 -0.387,0 -0.704,-0.316 -0.704,-0.707 0,-0.387 0.317,-0.703 0.704,-0.703 0.386,0 0.703,0.316 0.703,0.703"
                     style="fill:#ffffff;fill-opacity:1;fill-rule:nonzero;stroke:none"
                     id="path2183" />
                  <path
                     d="m 397.996,434.98 c 0,0 -5.5,-2.621 -10.742,0 -5.238,2.622 -10.09,7.208 -13.106,0.915 0,0 -0.132,9.832 11.93,8.648 12.055,-1.176 12.445,-7.992 11.918,-9.563"
                     style="fill:#26232c;fill-opacity:1;fill-rule:nonzero;stroke:none"
                     id="path2185" />
                  <path
                     d="m 398.273,434.98 c 0,0 5.504,-2.621 10.747,0 5.238,2.622 10.089,7.208 13.105,0.915 0,0 0.129,9.832 -11.93,8.648 -12.054,-1.176 -12.449,-7.992 -11.922,-9.563"
                     style="fill:#26232c;fill-opacity:1;fill-rule:nonzero;stroke:none"
                     id="path2187" />
                </g>
              </g>
            </g>
          </g>
        </g>
      </g>
    </g>
  </g>
</svg>
