<?xml version="1.0" encoding="UTF-8" standalone="no"?>
<!-- Created with Inkscape (http://www.inkscape.org/) -->

<svg
   width="61mm"
   height="61mm"
   viewBox="0 0 61 61"
   version="1.1"
   id="svg2192"
   xmlns="http://www.w3.org/2000/svg"
   xmlns:svg="http://www.w3.org/2000/svg">
  <defs
     id="defs2189">
    <clipPath
       clipPathUnits="userSpaceOnUse"
       id="clipPath2071">
      <path
         d="M 67,68 H 238 V 239 H 67 Z"
         id="path2069" />
    </clipPath>
    <clipPath
       clipPathUnits="userSpaceOnUse"
       id="clipPath2077">
      <path
         d="m 67.188,153.316 c 0,46.946 38.054,85.004 85,85.004 46.945,0 85,-38.058 85,-85.004 0,-46.941 -38.055,-85 -85,-85 -46.946,0 -85,38.059 -85,85"
         id="path2075" />
    </clipPath>
    <clipPath
       clipPathUnits="userSpaceOnUse"
       id="clipPath2087">
      <path
         d="M 0,0 H 801 V 801 H 0 Z"
         id="path2085" />
    </clipPath>
    <clipPath
       clipPathUnits="userSpaceOnUse"
       id="clipPath2059">
      <path
         d="M 0,0 H 801 V 801 H 0 Z"
         id="path2057" />
    </clipPath>
    <clipPath
       clipPathUnits="userSpaceOnUse"
       id="clipPath1523">
      <path
         d="M 315,68 H 485 V 239 H 315 Z"
         id="path1521" />
    </clipPath>
    <clipPath
       clipPathUnits="userSpaceOnUse"
       id="clipPath1529">
      <path
         d="m 315,153.316 c 0,46.946 38.055,85.004 85,85.004 46.945,0 85,-38.058 85,-85.004 0,-46.941 -38.055,-85 -85,-85 -46.945,0 -85,38.059 -85,85"
         id="path1527" />
    </clipPath>
    <clipPath
       clipPathUnits="userSpaceOnUse"
       id="clipPath1537">
      <path
         d="M 0,0 H 801 V 801 H 0 Z"
         id="path1535" />
    </clipPath>
    <clipPath
       clipPathUnits="userSpaceOnUse"
       id="clipPath1541">
      <path
         d="m 372.238,152.656 h 11.043 v 27.809 h -11.043 z"
         id="path1539" />
    </clipPath>
    <clipPath
       clipPathUnits="userSpaceOnUse"
       id="clipPath1545">
      <path
         d="M 0,0 H 801 V 801 H 0 Z"
         id="path1543" />
    </clipPath>
    <clipPath
       clipPathUnits="userSpaceOnUse"
       id="clipPath1549">
      <path
         d="m 372.238,152.656 h 11.043 v 27.809 h -11.043 z"
         id="path1547" />
    </clipPath>
    <clipPath
       clipPathUnits="userSpaceOnUse"
       id="clipPath1553">
      <path
         d="M 0,0 H 801 V 801 H 0 Z"
         id="path1551" />
    </clipPath>
    <clipPath
       clipPathUnits="userSpaceOnUse"
       id="clipPath1557">
      <path
         d="m 412.062,150.66 h 11.402 v 29.406 h -11.402 z"
         id="path1555" />
    </clipPath>
    <clipPath
       clipPathUnits="userSpaceOnUse"
       id="clipPath1561">
      <path
         d="M 0,0 H 801 V 801 H 0 Z"
         id="path1559" />
    </clipPath>
    <clipPath
       clipPathUnits="userSpaceOnUse"
       id="clipPath1565">
      <path
         d="m 412.062,150.656 h 11.402 v 29.41 h -11.402 z"
         id="path1563" />
    </clipPath>
    <clipPath
       clipPathUnits="userSpaceOnUse"
       id="clipPath1569">
      <path
         d="M 0,0 H 801 V 801 H 0 Z"
         id="path1567" />
    </clipPath>
    <clipPath
       clipPathUnits="userSpaceOnUse"
       id="clipPath1573">
      <path
         d="m 367.738,154.387 h 9.379 v 25.461 h -9.379 z"
         id="path1571" />
    </clipPath>
    <clipPath
       clipPathUnits="userSpaceOnUse"
       id="clipPath1577">
      <path
         d="M 0,0 H 801 V 801 H 0 Z"
         id="path1575" />
    </clipPath>
    <clipPath
       clipPathUnits="userSpaceOnUse"
       id="clipPath1581">
      <path
         d="m 367.738,154.387 h 9.379 v 25.461 h -9.379 z"
         id="path1579" />
    </clipPath>
    <clipPath
       clipPathUnits="userSpaceOnUse"
       id="clipPath1585">
      <path
         d="M 0,0 H 801 V 801 H 0 Z"
         id="path1583" />
    </clipPath>
    <clipPath
       clipPathUnits="userSpaceOnUse"
       id="clipPath1589">
      <path
         d="m 405.746,151.125 h 10.91 v 26.945 h -10.91 z"
         id="path1587" />
    </clipPath>
    <clipPath
       clipPathUnits="userSpaceOnUse"
       id="clipPath1593">
      <path
         d="M 0,0 H 801 V 801 H 0 Z"
         id="path1591" />
    </clipPath>
    <clipPath
       clipPathUnits="userSpaceOnUse"
       id="clipPath1597">
      <path
         d="m 405.746,151.125 h 10.91 v 26.945 h -10.91 z"
         id="path1595" />
    </clipPath>
    <clipPath
       clipPathUnits="userSpaceOnUse"
       id="clipPath1601">
      <path
         d="M 0,0 H 801 V 801 H 0 Z"
         id="path1599" />
    </clipPath>
    <clipPath
       clipPathUnits="userSpaceOnUse"
       id="clipPath1435">
      <path
         d="M 563,68 H 734 V 239 H 563 Z"
         id="path1433" />
    </clipPath>
    <clipPath
       clipPathUnits="userSpaceOnUse"
       id="clipPath1441">
      <path
         d="m 563.395,153.316 c 0,46.946 38.054,85.004 84.996,85.004 46.945,0 85.004,-38.058 85.004,-85.004 0,-46.941 -38.059,-85 -85.004,-85 -46.942,0 -84.996,38.059 -84.996,85"
         id="path1439" />
    </clipPath>
    <clipPath
       clipPathUnits="userSpaceOnUse"
       id="clipPath1451">
      <path
         d="M 0,0 H 801 V 801 H 0 Z"
         id="path1449" />
    </clipPath>
    <clipPath
       clipPathUnits="userSpaceOnUse"
       id="clipPath1509">
      <path
         d="M 0,0 H 801 V 801 H 0 Z"
         id="path1507" />
    </clipPath>
  </defs>
  <g
     id="layer1">
    <path
       d="m 60.423553,30.364436 c 0,-16.559742 -13.42637,-29.9861108 -29.987522,-29.9861108 -16.560094,0 -29.98469909,13.4263688 -29.98469909,29.9861108 0,16.561505 13.42460509,29.987521 29.98469909,29.987521 16.561152,0 29.987522,-13.426016 29.987522,-29.987521"
       style="fill:#8dd0c7;fill-opacity:1;fill-rule:nonzero;stroke:none;stroke-width:0.352778"
       id="path1353" />
    <g
       id="g1429"
       transform="matrix(0.26182907,0,0,0.3055951,-139.49166,-13.002725)">
      <g
         id="g1431"
         clip-path="url(#clipPath1435)"
         transform="matrix(1.4973924,0,0,1.234325,-323.03419,-54.898018)">
        <g
           id="g1437"
           clip-path="url(#clipPath1441)">
          <g
             id="g1443">
            <g
               id="g1445">
              <g
                 id="g1447"
                 clip-path="url(#clipPath1451)">
                <g
                   id="g1453">
                  <path
                     d="m 687.578,238.32 c 0.41,-2.832 0.633,-15.687 0.633,-18.675 0,-25.864 -16.02,-46.829 -35.777,-46.829 -19.758,0 -35.778,20.965 -35.778,46.829 0,2.988 0.223,15.843 0.633,18.675 z"
                     style="fill:#d39c5b;fill-opacity:1;fill-rule:nonzero;stroke:none"
                     id="path1455" />
                  <path
                     d="m 635.664,184.996 c 0,0 -10.203,23.395 -4.07,32.34 6.133,8.945 20.582,20.984 20.582,20.984 0,0 22.703,-15.136 23.047,-26.66 0.343,-11.523 -6.535,-30.101 -6.535,-30.101"
                     style="fill:#e2c59b;fill-opacity:1;fill-rule:nonzero;stroke:none"
                     id="path1457" />
                  <path
                     d="m 630.527,181.73 c 7.227,5.504 7.399,8.774 8.371,17.891 2.184,17.199 9.52,16.684 13.532,16.684 v -32.512 c 0,0 -18.118,-14.449 -26.828,-19.93 -0.973,4.008 -2.297,12.364 4.925,17.867"
                     style="fill:#be7447;fill-opacity:1;fill-rule:nonzero;stroke:none"
                     id="path1459" />
                  <path
                     d="m 679.262,163.863 c -8.711,5.485 -26.828,19.93 -26.828,19.93 v 32.512 c 4.015,0 11.351,0.515 13.531,-16.688 0.976,-9.113 1.148,-12.383 8.371,-17.887 7.223,-5.503 5.898,-13.859 4.926,-17.867"
                     style="fill:#be7447;fill-opacity:1;fill-rule:nonzero;stroke:none"
                     id="path1461" />
                  <path
                     d="m 672.613,139 c 0,0 13.028,-11.719 28.942,-4.723 -3.856,8.61 -10.981,15.864 -25,16.586"
                     style="fill:#be7447;fill-opacity:1;fill-rule:nonzero;stroke:none"
                     id="path1463" />
                  <path
                     d="m 673.703,142.914 c 0,0 13.527,-7.961 21.715,-4.359 -1.984,4.429 -12.203,11.062 -19.418,11.437"
                     style="fill:#191009;fill-opacity:1;fill-rule:nonzero;stroke:none"
                     id="path1465" />
                  <path
                     d="m 631.668,138.25 c 0,0 -13.027,-11.719 -28.941,-4.723 3.855,8.61 10.984,15.864 25.003,16.586"
                     style="fill:#be7447;fill-opacity:1;fill-rule:nonzero;stroke:none"
                     id="path1467" />
                  <path
                     d="m 630.582,142.164 c 0,0 -13.527,-7.961 -21.715,-4.359 1.981,4.429 12.203,11.062 19.418,11.437"
                     style="fill:#191009;fill-opacity:1;fill-rule:nonzero;stroke:none"
                     id="path1469" />
                  <path
                     d="m 676.738,136.609 -7.336,-3.671 -16.972,6.882 -16.969,-6.882 -7.34,3.671 c 0,0 0.461,18.575 -2.75,27.977 7.567,2.293 15.824,16.746 20.18,31.652 h 13.761 c 4.36,-14.906 12.614,-29.359 20.18,-31.652 -3.211,-9.402 -2.754,-27.977 -2.754,-27.977"
                     style="fill:#d39c5b;fill-opacity:1;fill-rule:nonzero;stroke:none"
                     id="path1471" />
                  <path
                     d="m 655.672,194.277 c 3.941,0 5.176,2.539 2.742,5.641 l -1.559,1.988 c -2.433,3.102 -6.414,3.102 -8.851,0 l -1.555,-1.988 c -2.437,-3.102 -1.203,-5.641 2.739,-5.641 z"
                     style="fill:#191009;fill-opacity:1;fill-rule:nonzero;stroke:none"
                     id="path1473" />
                  <path
                     d="m 678.406,168.379 c 0,0 -11.922,-3.457 -11.652,8.668 0,0 11.652,4.23 11.652,-8.668"
                     style="fill:#ffffff;fill-opacity:1;fill-rule:nonzero;stroke:none"
                     id="path1475" />
                  <path
                     d="m 668.668,172.141 c 0,1.593 1.289,2.89 2.887,2.89 1.597,0 2.89,-1.297 2.89,-2.89 0,-1.602 -1.293,-2.895 -2.89,-2.895 -1.598,0 -2.887,1.293 -2.887,2.895"
                     style="fill:#191009;fill-opacity:1;fill-rule:nonzero;stroke:none"
                     id="path1477" />
                  <path
                     d="m 670.203,171.871 c 0,0.375 0.301,0.68 0.676,0.68 0.375,0 0.676,-0.305 0.676,-0.68 0,-0.375 -0.301,-0.68 -0.676,-0.68 -0.375,0 -0.676,0.305 -0.676,0.68"
                     style="fill:#ffffff;fill-opacity:1;fill-rule:nonzero;stroke:none"
                     id="path1479" />
                  <path
                     d="m 626.457,168.379 c 0,0 11.922,-3.457 11.652,8.668 0,0 -11.652,4.23 -11.652,-8.668"
                     style="fill:#ffffff;fill-opacity:1;fill-rule:nonzero;stroke:none"
                     id="path1481" />
                  <path
                     d="m 636.199,172.141 c 0,1.593 -1.297,2.89 -2.894,2.89 -1.594,0 -2.891,-1.297 -2.891,-2.89 0,-1.602 1.297,-2.895 2.891,-2.895 1.597,0 2.894,1.293 2.894,2.895"
                     style="fill:#191009;fill-opacity:1;fill-rule:nonzero;stroke:none"
                     id="path1483" />
                  <path
                     d="m 634.66,171.871 c 0,0.375 -0.301,0.68 -0.676,0.68 -0.375,0 -0.679,-0.305 -0.679,-0.68 0,-0.375 0.304,-0.68 0.679,-0.68 0.375,0 0.676,0.305 0.676,0.68"
                     style="fill:#ffffff;fill-opacity:1;fill-rule:nonzero;stroke:none"
                     id="path1485" />
                  <path
                     d="m 667.363,218.84 c -2.062,-0.684 -12.359,5.234 -12.359,5.234 -0.629,-0.668 -1.535,-1.094 -2.551,-1.094 -1.015,0 -1.922,0.426 -2.551,1.094 0,0 -10.312,-6.242 -12.273,-5.09 -1.961,1.149 -2.031,13.356 0,14.559 2.031,1.203 12.465,-4.902 12.465,-4.902 0.617,0.558 1.445,0.906 2.359,0.906 0.914,0 1.742,-0.348 2.356,-0.906 0,0 10.781,6.332 12.468,4.902 1.684,-1.43 2.157,-14.016 0.086,-14.703"
                     style="fill:#000000;fill-opacity:1;fill-rule:nonzero;stroke:none"
                     id="path1487" />
                  <path
                     d="m 652.434,204.27 c 0,0 -4.52,-0.571 -5.887,2.652 -1.363,3.223 -4.817,6.664 -6.938,5.453 -3.047,-1.742 -1.738,-5.453 1.114,-6.32 -1.981,-1.985 -7.434,3 -3.282,6.922 4.352,4.109 12.887,-0.231 14.993,-4.754 z"
                     style="fill:#191009;fill-opacity:1;fill-rule:nonzero;stroke:none"
                     id="path1489" />
                  <path
                     d="m 652.434,204.27 c 0,0 4.523,-0.571 5.886,2.652 1.368,3.223 4.817,6.664 6.942,5.453 3.043,-1.742 1.734,-5.453 -1.117,-6.32 1.98,-1.985 7.437,3 3.285,6.922 -4.352,4.109 -12.887,-0.231 -14.996,-4.754 z"
                     style="fill:#191009;fill-opacity:1;fill-rule:nonzero;stroke:none"
                     id="path1491" />
                  <path
                     d="m 633.863,185.645 c -5.98,0 -10.828,-4.852 -10.828,-10.829 0,-5.98 4.848,-10.828 10.828,-10.828 5.977,0 10.828,4.848 10.828,10.828 0,5.977 -4.851,10.829 -10.828,10.829 m 0,-23.848 c -7.191,0 -13.023,5.828 -13.023,13.019 0,7.192 5.832,13.02 13.023,13.02 7.192,0 13.02,-5.828 13.02,-13.02 0,-7.191 -5.828,-13.019 -13.02,-13.019"
                     style="fill:#000000;fill-opacity:1;fill-rule:nonzero;stroke:none"
                     id="path1493" />
                  <path
                     d="m 616.457,173.512 h 6.371 v 2.605 h -6.371 z"
                     style="fill:#000000;fill-opacity:1;fill-rule:nonzero;stroke:none"
                     id="path1495" />
                  <path
                     d="m 616.457,174.816 h 2.398 v 51.945 h -2.398 z"
                     style="fill:#000000;fill-opacity:1;fill-rule:nonzero;stroke:none"
                     id="path1497" />
                </g>
              </g>
            </g>
          </g>
        </g>
      </g>
    </g>
    <g
       id="g1499"
       transform="matrix(0.270623,0,0,0.3055951,-145.23828,-19.437243)">
      <g
         id="g1501">
        <g
           id="g1503">
          <g
             id="g1505"
             clip-path="url(#clipPath1509)">
            <g
               id="g1511">
              <path
                 d="m 673.79062,140.72723 c 0,0 3.938,-13.879 10.266,-15.969 6.324,-2.09 14.527,-2.094 28.023,-0.75 13.496,1.348 32.204,-4.508 42.657,-21.234 10.457,-16.731002 1.39,-10.833002 -1.332,-6.133002 -2.727,4.695002 -15.696,18.343002 -26.325,20.597002 -10.629,2.254 -21.812,0.723 -22.972,-3.621 -1.16,-4.347 13.414,-23.621002 20.05,-27.562002 6.637,-3.942 8.083,-11.215 -1.023,-3.883 -9.109,7.336 -17.879,16.883 -27.121,33.094002 -3.813,1.832 -12.75,4.293 -16.371,1.968 -3.621,-2.324 0.937,-24.015002 8.402,-31.527002 7.465,-7.512 14.231,-11.66 20.809,-10.949 6.578,0.707 5.449,-5.289 -3.067,-3.438 -8.519,1.852 -27.414,1.399 -33.175,32.020002 -1.504,8.004 0.82,20.16 0.82,20.16 l -6.898,12.567 z"
                 style="fill:#d39c5b;fill-opacity:1;fill-rule:nonzero;stroke:none"
                 id="path1513" />
              <path
                 d="m 625.316,138.715 c 0,0 -3.937,-13.879 -10.266,-15.973 -6.324,-2.09 -14.527,-2.09 -28.023,-0.746 -13.496,1.344 -32.203,-4.512 -42.656,-21.238 -10.457,-16.727 -1.391,-10.828 1.332,-6.133 2.722,4.695 15.691,18.34 26.324,20.598 10.629,2.254 21.812,0.726 22.977,-3.621 1.156,-4.348 -13.418,-23.622 -20.055,-27.563 -6.637,-3.941 -8.086,-11.215 1.019,-3.879 9.114,7.336 17.879,16.879 27.125,33.094 3.813,1.828 12.75,4.289 16.372,1.965 3.621,-2.324 -0.938,-24.012 -8.403,-31.524 -7.461,-7.515 -14.23,-11.664 -20.808,-10.953 -6.579,0.711 -5.45,-5.289 3.066,-3.437 8.516,1.855 27.414,1.398 33.172,32.023 1.508,8.004 -0.82,20.16 -0.82,20.16 l 6.902,12.563 z"
                 style="fill:#d39c5b;fill-opacity:1;fill-rule:nonzero;stroke:none"
                 id="path1515" />
            </g>
          </g>
        </g>
      </g>
    </g>
  </g>
</svg>
