<?xml version="1.0" encoding="UTF-8" standalone="no"?>
<!-- Created with Inkscape (http://www.inkscape.org/) -->

<svg
   width="61mm"
   height="61mm"
   viewBox="0 0 61 61"
   version="1.1"
   id="svg2192"
   xmlns="http://www.w3.org/2000/svg"
   xmlns:svg="http://www.w3.org/2000/svg">
  <defs
     id="defs2189">
    <clipPath
       clipPathUnits="userSpaceOnUse"
       id="clipPath2071">
      <path
         d="M 67,68 H 238 V 239 H 67 Z"
         id="path2069" />
    </clipPath>
    <clipPath
       clipPathUnits="userSpaceOnUse"
       id="clipPath2077">
      <path
         d="m 67.188,153.316 c 0,46.946 38.054,85.004 85,85.004 46.945,0 85,-38.058 85,-85.004 0,-46.941 -38.055,-85 -85,-85 -46.946,0 -85,38.059 -85,85"
         id="path2075" />
    </clipPath>
    <clipPath
       clipPathUnits="userSpaceOnUse"
       id="clipPath2087">
      <path
         d="M 0,0 H 801 V 801 H 0 Z"
         id="path2085" />
    </clipPath>
    <clipPath
       clipPathUnits="userSpaceOnUse"
       id="clipPath2059">
      <path
         d="M 0,0 H 801 V 801 H 0 Z"
         id="path2057" />
    </clipPath>
    <clipPath
       clipPathUnits="userSpaceOnUse"
       id="clipPath1523">
      <path
         d="M 315,68 H 485 V 239 H 315 Z"
         id="path1521" />
    </clipPath>
    <clipPath
       clipPathUnits="userSpaceOnUse"
       id="clipPath1529">
      <path
         d="m 315,153.316 c 0,46.946 38.055,85.004 85,85.004 46.945,0 85,-38.058 85,-85.004 0,-46.941 -38.055,-85 -85,-85 -46.945,0 -85,38.059 -85,85"
         id="path1527" />
    </clipPath>
    <clipPath
       clipPathUnits="userSpaceOnUse"
       id="clipPath1537">
      <path
         d="M 0,0 H 801 V 801 H 0 Z"
         id="path1535" />
    </clipPath>
    <clipPath
       clipPathUnits="userSpaceOnUse"
       id="clipPath1541">
      <path
         d="m 372.238,152.656 h 11.043 v 27.809 h -11.043 z"
         id="path1539" />
    </clipPath>
    <clipPath
       clipPathUnits="userSpaceOnUse"
       id="clipPath1545">
      <path
         d="M 0,0 H 801 V 801 H 0 Z"
         id="path1543" />
    </clipPath>
    <clipPath
       clipPathUnits="userSpaceOnUse"
       id="clipPath1549">
      <path
         d="m 372.238,152.656 h 11.043 v 27.809 h -11.043 z"
         id="path1547" />
    </clipPath>
    <clipPath
       clipPathUnits="userSpaceOnUse"
       id="clipPath1553">
      <path
         d="M 0,0 H 801 V 801 H 0 Z"
         id="path1551" />
    </clipPath>
    <clipPath
       clipPathUnits="userSpaceOnUse"
       id="clipPath1557">
      <path
         d="m 412.062,150.66 h 11.402 v 29.406 h -11.402 z"
         id="path1555" />
    </clipPath>
    <clipPath
       clipPathUnits="userSpaceOnUse"
       id="clipPath1561">
      <path
         d="M 0,0 H 801 V 801 H 0 Z"
         id="path1559" />
    </clipPath>
    <clipPath
       clipPathUnits="userSpaceOnUse"
       id="clipPath1565">
      <path
         d="m 412.062,150.656 h 11.402 v 29.41 h -11.402 z"
         id="path1563" />
    </clipPath>
    <clipPath
       clipPathUnits="userSpaceOnUse"
       id="clipPath1569">
      <path
         d="M 0,0 H 801 V 801 H 0 Z"
         id="path1567" />
    </clipPath>
    <clipPath
       clipPathUnits="userSpaceOnUse"
       id="clipPath1573">
      <path
         d="m 367.738,154.387 h 9.379 v 25.461 h -9.379 z"
         id="path1571" />
    </clipPath>
    <clipPath
       clipPathUnits="userSpaceOnUse"
       id="clipPath1577">
      <path
         d="M 0,0 H 801 V 801 H 0 Z"
         id="path1575" />
    </clipPath>
    <clipPath
       clipPathUnits="userSpaceOnUse"
       id="clipPath1581">
      <path
         d="m 367.738,154.387 h 9.379 v 25.461 h -9.379 z"
         id="path1579" />
    </clipPath>
    <clipPath
       clipPathUnits="userSpaceOnUse"
       id="clipPath1585">
      <path
         d="M 0,0 H 801 V 801 H 0 Z"
         id="path1583" />
    </clipPath>
    <clipPath
       clipPathUnits="userSpaceOnUse"
       id="clipPath1589">
      <path
         d="m 405.746,151.125 h 10.91 v 26.945 h -10.91 z"
         id="path1587" />
    </clipPath>
    <clipPath
       clipPathUnits="userSpaceOnUse"
       id="clipPath1593">
      <path
         d="M 0,0 H 801 V 801 H 0 Z"
         id="path1591" />
    </clipPath>
    <clipPath
       clipPathUnits="userSpaceOnUse"
       id="clipPath1597">
      <path
         d="m 405.746,151.125 h 10.91 v 26.945 h -10.91 z"
         id="path1595" />
    </clipPath>
    <clipPath
       clipPathUnits="userSpaceOnUse"
       id="clipPath1601">
      <path
         d="M 0,0 H 801 V 801 H 0 Z"
         id="path1599" />
    </clipPath>
    <clipPath
       clipPathUnits="userSpaceOnUse"
       id="clipPath1435">
      <path
         d="M 563,68 H 734 V 239 H 563 Z"
         id="path1433" />
    </clipPath>
    <clipPath
       clipPathUnits="userSpaceOnUse"
       id="clipPath1441">
      <path
         d="m 563.395,153.316 c 0,46.946 38.054,85.004 84.996,85.004 46.945,0 85.004,-38.058 85.004,-85.004 0,-46.941 -38.059,-85 -85.004,-85 -46.942,0 -84.996,38.059 -84.996,85"
         id="path1439" />
    </clipPath>
    <clipPath
       clipPathUnits="userSpaceOnUse"
       id="clipPath1451">
      <path
         d="M 0,0 H 801 V 801 H 0 Z"
         id="path1449" />
    </clipPath>
    <clipPath
       clipPathUnits="userSpaceOnUse"
       id="clipPath1509">
      <path
         d="M 0,0 H 801 V 801 H 0 Z"
         id="path1507" />
    </clipPath>
    <clipPath
       clipPathUnits="userSpaceOnUse"
       id="clipPath1869">
      <path
         d="M 67,288 H 238 V 459 H 67 Z"
         id="path1867" />
    </clipPath>
    <clipPath
       clipPathUnits="userSpaceOnUse"
       id="clipPath1875">
      <path
         d="m 67.188,373.852 c 0,46.945 38.054,85 85,85 46.945,0 85,-38.055 85,-85 0,-46.946 -38.055,-85 -85,-85 -46.946,0 -85,38.054 -85,85"
         id="path1873" />
    </clipPath>
    <clipPath
       clipPathUnits="userSpaceOnUse"
       id="clipPath1885">
      <path
         d="M 0,0 H 801 V 801 H 0 Z"
         id="path1883" />
    </clipPath>
    <clipPath
       clipPathUnits="userSpaceOnUse"
       id="clipPath2135">
      <path
         d="M 315,288 H 485 V 459 H 315 Z"
         id="path2133" />
    </clipPath>
    <clipPath
       clipPathUnits="userSpaceOnUse"
       id="clipPath2141">
      <path
         d="m 315,373.852 c 0,46.945 38.055,85 85,85 46.945,0 85,-38.055 85,-85 0,-46.946 -38.055,-85 -85,-85 -46.945,0 -85,38.054 -85,85"
         id="path2139" />
    </clipPath>
    <clipPath
       clipPathUnits="userSpaceOnUse"
       id="clipPath2151">
      <path
         d="M 0,0 H 801 V 801 H 0 Z"
         id="path2149" />
    </clipPath>
    <clipPath
       clipPathUnits="userSpaceOnUse"
       id="clipPath1371">
      <path
         d="M 563,288 H 734 V 459 H 563 Z"
         id="path1369" />
    </clipPath>
    <clipPath
       clipPathUnits="userSpaceOnUse"
       id="clipPath1377">
      <path
         d="m 563.395,373.852 c 0,46.945 38.054,85 84.996,85 46.945,0 85.004,-38.055 85.004,-85 0,-46.946 -38.059,-85 -85.004,-85 -46.942,0 -84.996,38.054 -84.996,85"
         id="path1375" />
    </clipPath>
    <clipPath
       clipPathUnits="userSpaceOnUse"
       id="clipPath1387">
      <path
         d="M 0,0 H 801 V 801 H 0 Z"
         id="path1385" />
    </clipPath>
    <clipPath
       clipPathUnits="userSpaceOnUse"
       id="clipPath1941">
      <path
         d="M 67,510 H 238 V 681 H 67 Z"
         id="path1939" />
    </clipPath>
    <clipPath
       clipPathUnits="userSpaceOnUse"
       id="clipPath1947">
      <path
         d="m 67.188,595.414 c 0,46.945 38.054,85.004 85,85.004 46.945,0 85,-38.059 85,-85.004 0,-46.941 -38.055,-85 -85,-85 -46.946,0 -85,38.059 -85,85"
         id="path1945" />
    </clipPath>
    <clipPath
       clipPathUnits="userSpaceOnUse"
       id="clipPath1957">
      <path
         d="M 0,0 H 801 V 801 H 0 Z"
         id="path1955" />
    </clipPath>
    <clipPath
       clipPathUnits="userSpaceOnUse"
       id="clipPath2001">
      <path
         d="M 315,510 H 485 V 681 H 315 Z"
         id="path1999" />
    </clipPath>
    <clipPath
       clipPathUnits="userSpaceOnUse"
       id="clipPath2007">
      <path
         d="m 315,595.414 c 0,46.945 38.055,85.004 84.996,85.004 46.949,0 85.004,-38.059 85.004,-85.004 0,-46.941 -38.055,-85 -85.004,-85 -46.941,0 -84.996,38.059 -84.996,85"
         id="path2005" />
    </clipPath>
    <clipPath
       clipPathUnits="userSpaceOnUse"
       id="clipPath2017">
      <path
         d="M 0,0 H 801 V 801 H 0 Z"
         id="path2015" />
    </clipPath>
    <clipPath
       clipPathUnits="userSpaceOnUse"
       id="clipPath1809">
      <path
         d="M 563,510 H 734 V 681 H 563 Z"
         id="path1807" />
    </clipPath>
    <clipPath
       clipPathUnits="userSpaceOnUse"
       id="clipPath1815">
      <path
         d="m 563.395,595.414 c 0,46.945 38.054,85.004 84.996,85.004 46.945,0 85.004,-38.059 85.004,-85.004 0,-46.941 -38.059,-85 -85.004,-85 -46.942,0 -84.996,38.059 -84.996,85"
         id="path1813" />
    </clipPath>
    <clipPath
       clipPathUnits="userSpaceOnUse"
       id="clipPath1825">
      <path
         d="M 0,0 H 801 V 801 H 0 Z"
         id="path1823" />
    </clipPath>
    <clipPath
       clipPathUnits="userSpaceOnUse"
       id="clipPath1797">
      <path
         d="M 0,0 H 801 V 801 H 0 Z"
         id="path1795" />
    </clipPath>
  </defs>
  <g
     id="layer1">
    <g
       id="g1787"
       transform="matrix(0.35277777,0,0,0.35277777,-198.01272,-179.75669)">
      <g
         id="g1789">
        <g
           id="g1791">
          <g
             id="g1793"
             clip-path="url(#clipPath1797)">
            <g
               id="g1799">
              <path
                 d="m 733.395,595.414 c 0,-46.941 -38.059,-85 -85.004,-85 -46.942,0 -84.996,38.059 -84.996,85 0,46.945 38.054,85.004 84.996,85.004 46.945,0 85.004,-38.059 85.004,-85.004"
                 style="fill:#f9b44d;fill-opacity:1;fill-rule:nonzero;stroke:none"
                 id="path1801" />
            </g>
          </g>
        </g>
      </g>
    </g>
    <g
       id="g1803"
       transform="matrix(0.35277777,0,0,0.35277777,-197.72281,-179.65651)">
      <g
         id="g1805"
         clip-path="url(#clipPath1809)">
        <g
           id="g1811"
           clip-path="url(#clipPath1815)">
          <g
             id="g1817">
            <g
               id="g1819">
              <g
                 id="g1821"
                 clip-path="url(#clipPath1825)">
                <g
                   id="g1827">
                  <path
                     d="m 648.391,626.863 c -28.118,0 -50.914,23.977 -50.914,53.555 h 101.832 c 0,-29.578 -22.797,-53.555 -50.918,-53.555"
                     style="fill:#191009;fill-opacity:1;fill-rule:nonzero;stroke:none"
                     id="path1829" />
                  <path
                     d="m 625.992,631.406 22.403,49.012 24.121,-47.172 14.976,3.18 -13.644,14.457 7.972,2.754 -33.425,26.781 -25.258,-20.473 6.246,-6.308 -15.367,-15.434 z"
                     style="fill:#434345;fill-opacity:1;fill-rule:nonzero;stroke:none"
                     id="path1831" />
                  <path
                     d="m 629.383,563.426 c 0,-5.367 -4.356,-9.723 -9.727,-9.723 -5.371,0 -9.722,4.356 -9.722,9.723 0,5.371 4.351,9.726 9.722,9.726 5.371,0 9.727,-4.355 9.727,-9.726"
                     style="fill:#191009;fill-opacity:1;fill-rule:nonzero;stroke:none"
                     id="path1833" />
                  <path
                     d="m 686.699,563.426 c 0,-5.367 -4.355,-9.723 -9.726,-9.723 -5.371,0 -9.719,4.356 -9.719,9.723 0,5.371 4.348,9.726 9.719,9.726 5.371,0 9.726,-4.355 9.726,-9.726"
                     style="fill:#191009;fill-opacity:1;fill-rule:nonzero;stroke:none"
                     id="path1835" />
                  <path
                     d="m 681.824,565.047 c 0,-3.57 -2.898,-6.469 -6.469,-6.469 -3.57,0 -6.464,2.899 -6.464,6.469 0,3.57 2.894,6.465 6.464,6.465 3.571,0 6.469,-2.895 6.469,-6.465"
                     style="fill:#3e3d42;fill-opacity:1;fill-rule:nonzero;stroke:none"
                     id="path1837" />
                  <path
                     d="m 627.336,565.047 c 0,-3.57 -2.895,-6.469 -6.465,-6.469 -3.574,0 -6.469,2.899 -6.469,6.469 0,3.57 2.895,6.465 6.469,6.465 3.57,0 6.465,-2.895 6.465,-6.465"
                     style="fill:#3e3d42;fill-opacity:1;fill-rule:nonzero;stroke:none"
                     id="path1839" />
                  <path
                     d="m 689.973,599.246 c 0,-23 -18.649,-41.644 -41.649,-41.644 -23,0 -41.648,18.644 -41.648,41.644 0,23.004 18.648,41.649 41.648,41.649 23,0 41.649,-18.645 41.649,-41.649"
                     style="fill:#fcfcfc;fill-opacity:1;fill-rule:nonzero;stroke:none"
                     id="path1841" />
                  <path
                     d="m 645.727,597.367 c 2.941,-7.027 -3.883,-15.812 -12.786,-14.195 -8.902,1.621 -18.613,20.879 -12.949,26.707 5.668,5.824 21.688,-2.852 25.735,-12.512"
                     style="fill:#191009;fill-opacity:1;fill-rule:nonzero;stroke:none"
                     id="path1843" />
                  <path
                     d="m 639.09,595.582 c 0,-2.027 -1.641,-3.668 -3.668,-3.668 -2.024,0 -3.668,1.641 -3.668,3.668 0,2.023 1.644,3.668 3.668,3.668 2.027,0 3.668,-1.645 3.668,-3.668"
                     style="fill:#4e4741;fill-opacity:1;fill-rule:nonzero;stroke:none"
                     id="path1845" />
                  <path
                     d="m 637.211,595.582 c 0,-0.988 -0.801,-1.789 -1.789,-1.789 -0.984,0 -1.785,0.801 -1.785,1.789 0,0.984 0.801,1.785 1.785,1.785 0.988,0 1.789,-0.801 1.789,-1.785"
                     style="fill:#e3e1e2;fill-opacity:1;fill-rule:nonzero;stroke:none"
                     id="path1847" />
                  <path
                     d="m 650.805,597.367 c -2.946,-7.027 3.883,-15.812 12.785,-14.195 8.902,1.621 18.613,20.879 12.945,26.707 -5.664,5.824 -21.683,-2.852 -25.73,-12.512"
                     style="fill:#191009;fill-opacity:1;fill-rule:nonzero;stroke:none"
                     id="path1849" />
                  <path
                     d="m 657.441,595.582 c 0,-2.027 1.641,-3.668 3.668,-3.668 2.024,0 3.668,1.641 3.668,3.668 0,2.023 -1.644,3.668 -3.668,3.668 -2.027,0 -3.668,-1.645 -3.668,-3.668"
                     style="fill:#4e4741;fill-opacity:1;fill-rule:nonzero;stroke:none"
                     id="path1851" />
                  <path
                     d="m 659.32,595.582 c 0,-0.988 0.801,-1.789 1.789,-1.789 0.985,0 1.786,0.801 1.786,1.789 0,0.984 -0.801,1.785 -1.786,1.785 -0.988,0 -1.789,-0.801 -1.789,-1.785"
                     style="fill:#e3e1e2;fill-opacity:1;fill-rule:nonzero;stroke:none"
                     id="path1853" />
                  <path
                     d="m 650.965,612.492 c 3.129,0 4.109,2.016 2.176,4.477 l -1.239,1.578 c -1.929,2.461 -5.09,2.461 -7.023,0 l -1.234,-1.578 c -1.934,-2.461 -0.954,-4.477 2.175,-4.477 z"
                     style="fill:#191009;fill-opacity:1;fill-rule:nonzero;stroke:none"
                     id="path1855" />
                  <path
                     d="m 638.801,622.82 c 0,0 5.426,1.696 9.469,-2.429 3.562,2.832 5.828,3.664 9.71,1.386 -3.964,4.36 -8.449,3.008 -9.824,2.684 -3.074,0.805 -8.543,0.625 -9.355,-1.641"
                     style="fill:#191009;fill-opacity:1;fill-rule:nonzero;stroke:none"
                     id="path1857" />
                  <path
                     d="m 651.117,652.262 c 0,-1.504 -1.219,-2.723 -2.722,-2.723 -1.504,0 -2.727,1.219 -2.727,2.723 0,1.508 1.223,2.726 2.727,2.726 1.503,0 2.722,-1.218 2.722,-2.726"
                     style="fill:#434345;fill-opacity:1;fill-rule:nonzero;stroke:none"
                     id="path1859" />
                  <path
                     d="m 651.117,661.695 c 0,-1.507 -1.219,-2.726 -2.722,-2.726 -1.504,0 -2.727,1.219 -2.727,2.726 0,1.504 1.223,2.723 2.727,2.723 1.503,0 2.722,-1.219 2.722,-2.723"
                     style="fill:#434345;fill-opacity:1;fill-rule:nonzero;stroke:none"
                     id="path1861" />
                </g>
              </g>
            </g>
          </g>
        </g>
      </g>
    </g>
  </g>
</svg>
