<?xml version="1.0" encoding="UTF-8" standalone="no"?>
<!-- Created with Inkscape (http://www.inkscape.org/) -->

<svg
   width="61mm"
   height="61mm"
   viewBox="0 0 61 61"
   version="1.1"
   id="svg2192"
   xmlns="http://www.w3.org/2000/svg"
   xmlns:svg="http://www.w3.org/2000/svg">
  <defs
     id="defs2189">
    <clipPath
       clipPathUnits="userSpaceOnUse"
       id="clipPath2071">
      <path
         d="M 67,68 H 238 V 239 H 67 Z"
         id="path2069" />
    </clipPath>
    <clipPath
       clipPathUnits="userSpaceOnUse"
       id="clipPath2077">
      <path
         d="m 67.188,153.316 c 0,46.946 38.054,85.004 85,85.004 46.945,0 85,-38.058 85,-85.004 0,-46.941 -38.055,-85 -85,-85 -46.946,0 -85,38.059 -85,85"
         id="path2075" />
    </clipPath>
    <clipPath
       clipPathUnits="userSpaceOnUse"
       id="clipPath2087">
      <path
         d="M 0,0 H 801 V 801 H 0 Z"
         id="path2085" />
    </clipPath>
    <clipPath
       clipPathUnits="userSpaceOnUse"
       id="clipPath2059">
      <path
         d="M 0,0 H 801 V 801 H 0 Z"
         id="path2057" />
    </clipPath>
    <clipPath
       clipPathUnits="userSpaceOnUse"
       id="clipPath1523">
      <path
         d="M 315,68 H 485 V 239 H 315 Z"
         id="path1521" />
    </clipPath>
    <clipPath
       clipPathUnits="userSpaceOnUse"
       id="clipPath1529">
      <path
         d="m 315,153.316 c 0,46.946 38.055,85.004 85,85.004 46.945,0 85,-38.058 85,-85.004 0,-46.941 -38.055,-85 -85,-85 -46.945,0 -85,38.059 -85,85"
         id="path1527" />
    </clipPath>
    <clipPath
       clipPathUnits="userSpaceOnUse"
       id="clipPath1537">
      <path
         d="M 0,0 H 801 V 801 H 0 Z"
         id="path1535" />
    </clipPath>
    <clipPath
       clipPathUnits="userSpaceOnUse"
       id="clipPath1541">
      <path
         d="m 372.238,152.656 h 11.043 v 27.809 h -11.043 z"
         id="path1539" />
    </clipPath>
    <clipPath
       clipPathUnits="userSpaceOnUse"
       id="clipPath1545">
      <path
         d="M 0,0 H 801 V 801 H 0 Z"
         id="path1543" />
    </clipPath>
    <clipPath
       clipPathUnits="userSpaceOnUse"
       id="clipPath1549">
      <path
         d="m 372.238,152.656 h 11.043 v 27.809 h -11.043 z"
         id="path1547" />
    </clipPath>
    <clipPath
       clipPathUnits="userSpaceOnUse"
       id="clipPath1553">
      <path
         d="M 0,0 H 801 V 801 H 0 Z"
         id="path1551" />
    </clipPath>
    <clipPath
       clipPathUnits="userSpaceOnUse"
       id="clipPath1557">
      <path
         d="m 412.062,150.66 h 11.402 v 29.406 h -11.402 z"
         id="path1555" />
    </clipPath>
    <clipPath
       clipPathUnits="userSpaceOnUse"
       id="clipPath1561">
      <path
         d="M 0,0 H 801 V 801 H 0 Z"
         id="path1559" />
    </clipPath>
    <clipPath
       clipPathUnits="userSpaceOnUse"
       id="clipPath1565">
      <path
         d="m 412.062,150.656 h 11.402 v 29.41 h -11.402 z"
         id="path1563" />
    </clipPath>
    <clipPath
       clipPathUnits="userSpaceOnUse"
       id="clipPath1569">
      <path
         d="M 0,0 H 801 V 801 H 0 Z"
         id="path1567" />
    </clipPath>
    <clipPath
       clipPathUnits="userSpaceOnUse"
       id="clipPath1573">
      <path
         d="m 367.738,154.387 h 9.379 v 25.461 h -9.379 z"
         id="path1571" />
    </clipPath>
    <clipPath
       clipPathUnits="userSpaceOnUse"
       id="clipPath1577">
      <path
         d="M 0,0 H 801 V 801 H 0 Z"
         id="path1575" />
    </clipPath>
    <clipPath
       clipPathUnits="userSpaceOnUse"
       id="clipPath1581">
      <path
         d="m 367.738,154.387 h 9.379 v 25.461 h -9.379 z"
         id="path1579" />
    </clipPath>
    <clipPath
       clipPathUnits="userSpaceOnUse"
       id="clipPath1585">
      <path
         d="M 0,0 H 801 V 801 H 0 Z"
         id="path1583" />
    </clipPath>
    <clipPath
       clipPathUnits="userSpaceOnUse"
       id="clipPath1589">
      <path
         d="m 405.746,151.125 h 10.91 v 26.945 h -10.91 z"
         id="path1587" />
    </clipPath>
    <clipPath
       clipPathUnits="userSpaceOnUse"
       id="clipPath1593">
      <path
         d="M 0,0 H 801 V 801 H 0 Z"
         id="path1591" />
    </clipPath>
    <clipPath
       clipPathUnits="userSpaceOnUse"
       id="clipPath1597">
      <path
         d="m 405.746,151.125 h 10.91 v 26.945 h -10.91 z"
         id="path1595" />
    </clipPath>
    <clipPath
       clipPathUnits="userSpaceOnUse"
       id="clipPath1601">
      <path
         d="M 0,0 H 801 V 801 H 0 Z"
         id="path1599" />
    </clipPath>
    <clipPath
       clipPathUnits="userSpaceOnUse"
       id="clipPath1435">
      <path
         d="M 563,68 H 734 V 239 H 563 Z"
         id="path1433" />
    </clipPath>
    <clipPath
       clipPathUnits="userSpaceOnUse"
       id="clipPath1441">
      <path
         d="m 563.395,153.316 c 0,46.946 38.054,85.004 84.996,85.004 46.945,0 85.004,-38.058 85.004,-85.004 0,-46.941 -38.059,-85 -85.004,-85 -46.942,0 -84.996,38.059 -84.996,85"
         id="path1439" />
    </clipPath>
    <clipPath
       clipPathUnits="userSpaceOnUse"
       id="clipPath1451">
      <path
         d="M 0,0 H 801 V 801 H 0 Z"
         id="path1449" />
    </clipPath>
    <clipPath
       clipPathUnits="userSpaceOnUse"
       id="clipPath1509">
      <path
         d="M 0,0 H 801 V 801 H 0 Z"
         id="path1507" />
    </clipPath>
    <clipPath
       clipPathUnits="userSpaceOnUse"
       id="clipPath1869">
      <path
         d="M 67,288 H 238 V 459 H 67 Z"
         id="path1867" />
    </clipPath>
    <clipPath
       clipPathUnits="userSpaceOnUse"
       id="clipPath1875">
      <path
         d="m 67.188,373.852 c 0,46.945 38.054,85 85,85 46.945,0 85,-38.055 85,-85 0,-46.946 -38.055,-85 -85,-85 -46.946,0 -85,38.054 -85,85"
         id="path1873" />
    </clipPath>
    <clipPath
       clipPathUnits="userSpaceOnUse"
       id="clipPath1885">
      <path
         d="M 0,0 H 801 V 801 H 0 Z"
         id="path1883" />
    </clipPath>
    <clipPath
       clipPathUnits="userSpaceOnUse"
       id="clipPath2135">
      <path
         d="M 315,288 H 485 V 459 H 315 Z"
         id="path2133" />
    </clipPath>
    <clipPath
       clipPathUnits="userSpaceOnUse"
       id="clipPath2141">
      <path
         d="m 315,373.852 c 0,46.945 38.055,85 85,85 46.945,0 85,-38.055 85,-85 0,-46.946 -38.055,-85 -85,-85 -46.945,0 -85,38.054 -85,85"
         id="path2139" />
    </clipPath>
    <clipPath
       clipPathUnits="userSpaceOnUse"
       id="clipPath2151">
      <path
         d="M 0,0 H 801 V 801 H 0 Z"
         id="path2149" />
    </clipPath>
    <clipPath
       clipPathUnits="userSpaceOnUse"
       id="clipPath1371">
      <path
         d="M 563,288 H 734 V 459 H 563 Z"
         id="path1369" />
    </clipPath>
    <clipPath
       clipPathUnits="userSpaceOnUse"
       id="clipPath1377">
      <path
         d="m 563.395,373.852 c 0,46.945 38.054,85 84.996,85 46.945,0 85.004,-38.055 85.004,-85 0,-46.946 -38.059,-85 -85.004,-85 -46.942,0 -84.996,38.054 -84.996,85"
         id="path1375" />
    </clipPath>
    <clipPath
       clipPathUnits="userSpaceOnUse"
       id="clipPath1387">
      <path
         d="M 0,0 H 801 V 801 H 0 Z"
         id="path1385" />
    </clipPath>
    <clipPath
       clipPathUnits="userSpaceOnUse"
       id="clipPath1941">
      <path
         d="M 67,510 H 238 V 681 H 67 Z"
         id="path1939" />
    </clipPath>
    <clipPath
       clipPathUnits="userSpaceOnUse"
       id="clipPath1947">
      <path
         d="m 67.188,595.414 c 0,46.945 38.054,85.004 85,85.004 46.945,0 85,-38.059 85,-85.004 0,-46.941 -38.055,-85 -85,-85 -46.946,0 -85,38.059 -85,85"
         id="path1945" />
    </clipPath>
    <clipPath
       clipPathUnits="userSpaceOnUse"
       id="clipPath1957">
      <path
         d="M 0,0 H 801 V 801 H 0 Z"
         id="path1955" />
    </clipPath>
  </defs>
  <g
     id="layer1">
    <path
       d="m 60.568146,30.364439 c 0,-16.559741 -13.424958,-29.98610994 -29.986111,-29.98610994 -16.561505,0 -29.98611019,13.42636894 -29.98611019,29.98610994 0,16.561153 13.42460519,29.987522 29.98611019,29.987522 16.561153,0 29.986111,-13.426369 29.986111,-29.987522"
       style="fill:#61bbc4;fill-opacity:1;fill-rule:nonzero;stroke:none;stroke-width:0.352778"
       id="path1361" />
    <g
       id="g1935"
       transform="matrix(0.35277777,0,0,0.35277777,-23.467821,-179.96404)">
      <g
         id="g1937"
         clip-path="url(#clipPath1941)">
        <g
           id="g1943"
           clip-path="url(#clipPath1947)">
          <g
             id="g1949">
            <g
               id="g1951">
              <g
                 id="g1953"
                 clip-path="url(#clipPath1957)">
                <g
                   id="g1959">
                  <path
                     d="m 152.145,626.863 c -28.118,0 -50.915,23.977 -50.915,53.555 h 101.829 c 0,-29.578 -22.793,-53.555 -50.914,-53.555"
                     style="fill:#a95d21;fill-opacity:1;fill-rule:nonzero;stroke:none"
                     id="path1961" />
                  <path
                     d="m 222.07,580.316 c 0,9.477 -7.683,17.161 -17.164,17.161 -9.484,0 -17.164,-7.684 -17.164,-17.161 0,-9.48 7.68,-17.164 17.164,-17.164 9.481,0 17.164,7.684 17.164,17.164"
                     style="fill:#a95d21;fill-opacity:1;fill-rule:nonzero;stroke:none"
                     id="path1963" />
                  <path
                     d="m 216.09,580.316 c 0,6.176 -5.012,11.184 -11.184,11.184 -6.176,0 -11.187,-5.008 -11.187,-11.184 0,-6.183 5.011,-11.187 11.187,-11.187 6.172,0 11.184,5.004 11.184,11.187"
                     style="fill:#f5c799;fill-opacity:1;fill-rule:nonzero;stroke:none"
                     id="path1965" />
                  <path
                     d="m 116.633,580.316 c 0,9.477 -7.688,17.161 -17.164,17.161 -9.485,0 -17.164,-7.684 -17.164,-17.161 0,-9.48 7.679,-17.164 17.164,-17.164 9.476,0 17.164,7.684 17.164,17.164"
                     style="fill:#a95d21;fill-opacity:1;fill-rule:nonzero;stroke:none"
                     id="path1967" />
                  <path
                     d="m 110.652,580.316 c 0,6.176 -5.011,11.184 -11.183,11.184 -6.176,0 -11.188,-5.008 -11.188,-11.184 0,-6.183 5.012,-11.187 11.188,-11.187 6.172,0 11.183,5.004 11.183,11.187"
                     style="fill:#f5c799;fill-opacity:1;fill-rule:nonzero;stroke:none"
                     id="path1969" />
                  <path
                     d="m 152.145,540.281 c -26.684,0 -48.317,21.629 -48.317,48.313 0,26.683 21.633,48.316 48.317,48.316 26.683,0 48.312,-21.633 48.312,-48.316 0,-26.684 -21.629,-48.313 -48.312,-48.313"
                     style="fill:#a95d21;fill-opacity:1;fill-rule:nonzero;stroke:none"
                     id="path1971" />
                  <path
                     d="m 194.762,585.02 c 0,-11.965 -9.7,-21.657 -21.66,-21.657 -10.102,0 -18.563,6.926 -20.957,16.282 -2.395,-9.356 -10.856,-16.282 -20.957,-16.282 -11.961,0 -21.661,9.692 -21.661,21.657 0,11.96 9.7,21.656 21.661,21.656 v 11.176 c 0,11.964 9.695,21.656 21.656,21.656 11.961,0 21.66,-9.692 21.66,-21.656 v -11.247 c 11.301,-0.726 20.258,-10.101 20.258,-21.585"
                     style="fill:#f5c799;fill-opacity:1;fill-rule:nonzero;stroke:none"
                     id="path1973" />
                  <path
                     d="m 144.188,587.113 c 0,2.477 -2.004,4.481 -4.477,4.481 -2.477,0 -4.484,-2.004 -4.484,-4.481 0,-2.472 2.007,-4.48 4.484,-4.48 2.473,0 4.477,2.008 4.477,4.48"
                     style="fill:#26232c;fill-opacity:1;fill-rule:nonzero;stroke:none"
                     id="path1975" />
                  <path
                     d="m 169.062,587.113 c 0,2.477 -2.003,4.481 -4.48,4.481 -2.473,0 -4.48,-2.004 -4.48,-4.481 0,-2.472 2.007,-4.48 4.48,-4.48 2.477,0 4.48,2.008 4.48,4.48"
                     style="fill:#26232c;fill-opacity:1;fill-rule:nonzero;stroke:none"
                     id="path1977" />
                  <path
                     d="m 142.715,585.617 c 0,0.824 -0.672,1.496 -1.496,1.496 -0.824,0 -1.492,-0.672 -1.492,-1.496 0,-0.824 0.668,-1.492 1.492,-1.492 0.824,0 1.496,0.668 1.496,1.492"
                     style="fill:#ffffff;fill-opacity:1;fill-rule:nonzero;stroke:none"
                     id="path1979" />
                  <path
                     d="m 167.57,585.617 c 0,0.824 -0.672,1.496 -1.496,1.496 -0.824,0 -1.492,-0.672 -1.492,-1.496 0,-0.824 0.668,-1.492 1.492,-1.492 0.824,0 1.496,0.668 1.496,1.492"
                     style="fill:#ffffff;fill-opacity:1;fill-rule:nonzero;stroke:none"
                     id="path1981" />
                  <path
                     d="m 156.688,602.086 c 4.414,0 5.796,2.844 3.07,6.312 l -1.746,2.223 c -2.723,3.477 -7.184,3.477 -9.907,0 l -1.746,-2.223 c -2.726,-3.468 -1.343,-6.312 3.071,-6.312 z"
                     style="fill:#a95d21;fill-opacity:1;fill-rule:nonzero;stroke:none"
                     id="path1983" />
                  <path
                     d="m 152.145,607.098 c 0,1.308 -1.063,2.367 -2.372,2.367 -1.312,0 -2.371,-1.059 -2.371,-2.367 0,-1.313 1.059,-2.371 2.371,-2.371 1.309,0 2.372,1.058 2.372,2.371"
                     style="fill:#26232c;fill-opacity:1;fill-rule:nonzero;stroke:none"
                     id="path1985" />
                  <path
                     d="m 159.227,607.098 c 0,1.308 -1.059,2.367 -2.372,2.367 -1.308,0 -2.371,-1.059 -2.371,-2.367 0,-1.313 1.063,-2.371 2.371,-2.371 1.313,0 2.372,1.058 2.372,2.371"
                     style="fill:#26232c;fill-opacity:1;fill-rule:nonzero;stroke:none"
                     id="path1987" />
                  <path
                     d="m 152.961,614.059 c 0,0 -3.918,-1.868 -7.649,0 -3.734,1.863 -7.187,5.132 -9.332,0.652 0,0 -0.093,6.996 8.493,6.16 8.582,-0.84 8.863,-5.695 8.488,-6.812"
                     style="fill:#26232c;fill-opacity:1;fill-rule:nonzero;stroke:none"
                     id="path1989" />
                  <path
                     d="m 153.156,614.059 c 0,0 3.918,-1.868 7.649,0 3.734,1.863 7.187,5.132 9.332,0.652 0,0 0.093,6.996 -8.492,6.16 -8.583,-0.84 -8.864,-5.695 -8.489,-6.812"
                     style="fill:#26232c;fill-opacity:1;fill-rule:nonzero;stroke:none"
                     id="path1991" />
                  <path
                     d="m 189.805,577.824 c -0.871,0 -1.575,-0.176 -1.575,-0.39 0,-0.215 0.704,-0.387 1.575,-0.387 0.871,0 1.578,0.172 1.578,0.387 0,0.214 -0.707,0.39 -1.578,0.39 m -2.719,7.649 c -0.074,2.843 -0.551,5.617 -1.563,8.285 -0.41,1.082 -0.964,2.074 -1.804,2.883 -0.93,0.91 -2.09,1.386 -3.324,1.718 -1.547,0.422 -3.129,0.524 -4.727,0.536 -2.406,0.023 -4.785,-0.278 -7.133,-0.782 -2.332,-0.492 -4.191,-1.711 -5.668,-3.558 -1.898,-2.371 -3.109,-5.059 -3.789,-8 -0.316,-1.364 -0.582,-2.731 -0.547,-4.133 0.016,-0.606 0.078,-1.215 0.188,-1.813 0.273,-1.48 1.179,-2.449 2.554,-3.007 1.379,-0.555 2.817,-0.899 4.274,-1.188 1.617,-0.32 3.25,-0.562 4.898,-0.664 1.285,-0.086 2.575,-0.121 3.446,-0.16 3.449,0.172 6.464,0.422 9.394,1.258 0.539,0.156 1.055,0.402 1.563,0.64 0.484,0.227 0.859,0.598 1.097,1.074 0.262,0.532 0.535,1.063 0.746,1.614 0.247,0.648 0.301,1.34 0.325,2.031 0.043,1.09 0.097,2.18 0.07,3.266 m -42.172,0.875 c -0.555,2.355 -1.465,4.558 -2.684,6.64 -0.668,1.141 -1.421,2.203 -2.382,3.117 -1.266,1.207 -2.786,1.922 -4.461,2.364 -3.383,0.883 -6.809,1.101 -10.27,0.586 -0.679,-0.102 -1.347,-0.282 -2.012,-0.45 -1.378,-0.351 -2.417,-1.152 -3.214,-2.335 -0.875,-1.305 -1.414,-2.743 -1.774,-4.258 -0.472,-1.977 -0.738,-3.992 -0.937,-6.012 -0.118,-1.172 -0.094,-2.34 0.05,-3.512 0.075,-0.586 0.122,-1.183 0.254,-1.758 0.469,-2.042 1.735,-3.343 3.766,-3.878 1.855,-0.485 3.75,-0.77 5.66,-0.926 1.414,-0.117 2.836,-0.176 3.75,-0.231 3.262,0.043 5.996,0.25 8.688,0.871 1.101,0.25 2.214,0.481 3.222,1.016 0.492,0.262 0.973,0.578 1.407,0.93 0.711,0.59 1.074,1.39 1.226,2.297 0.317,1.871 0.137,3.711 -0.289,5.539 m -30.48,-8.524 c -0.872,0 -1.575,-0.176 -1.575,-0.39 0,-0.215 0.703,-0.387 1.575,-0.387 0.875,0 1.578,0.172 1.578,0.387 0,0.214 -0.703,0.39 -1.578,0.39 m 78.722,-2.551 c -0.015,-0.261 -0.14,-0.425 -0.39,-0.488 -0.18,-0.047 -0.356,-0.101 -0.536,-0.125 -2.566,-0.402 -5.132,-0.797 -7.722,-0.976 -2.07,-0.145 -4.141,-0.239 -6.215,-0.329 -3.996,-0.179 -7.977,-0.093 -11.945,0.411 -2.426,0.304 -4.828,0.746 -7.157,1.496 -1.179,0.383 -2.339,0.828 -3.519,1.203 -1.844,0.582 -3.731,0.844 -5.641,0.488 -1.148,-0.219 -2.285,-0.547 -3.398,-0.906 -2.016,-0.656 -4.031,-1.297 -6.121,-1.684 -4.067,-0.75 -8.164,-1.093 -11.985,-1.051 -3.117,0.004 -5.91,0.114 -8.699,0.446 -2.281,0.273 -4.566,0.578 -6.848,0.887 -0.484,0.07 -0.957,0.21 -1.433,0.335 -0.254,0.067 -0.422,0.239 -0.426,0.52 -0.047,1.344 -0.094,2.691 -0.129,4.043 -0.004,0.203 0.047,0.406 0.078,0.605 0.024,0.172 0.118,0.293 0.282,0.364 0.175,0.078 0.355,0.156 0.507,0.261 0.754,0.524 1.11,1.313 1.399,2.129 0.203,0.59 0.336,1.2 0.504,1.793 0.105,0.375 0.25,0.739 0.332,1.114 0.394,1.757 0.761,3.531 1.168,5.285 0.386,1.672 0.89,3.316 1.691,4.847 0.895,1.711 2.168,3.024 3.981,3.778 1.097,0.457 2.238,0.75 3.406,0.933 2.098,0.332 4.203,0.371 6.32,0.219 2.137,-0.152 4.25,-0.48 6.309,-1.101 1.531,-0.461 2.972,-1.106 4.203,-2.149 1.871,-1.598 3.379,-3.492 4.535,-5.668 1.16,-2.172 1.969,-4.48 2.699,-6.82 0.207,-0.672 0.406,-1.348 0.645,-2.008 0.363,-0.973 1.058,-1.574 2.094,-1.734 0.332,-0.051 0.675,-0.063 1.011,-0.047 0.774,0.047 1.524,0.211 2.043,0.863 0.227,0.281 0.434,0.598 0.582,0.926 0.281,0.64 0.551,1.297 0.762,1.965 0.914,2.894 2.125,5.652 3.66,8.269 1.27,2.176 2.949,3.934 5.172,5.145 1.574,0.859 3.254,1.406 5.004,1.746 2.633,0.512 5.297,0.637 7.969,0.519 1.617,-0.07 3.214,-0.273 4.769,-0.738 1.598,-0.48 3,-1.258 4.047,-2.59 0.68,-0.859 1.184,-1.816 1.598,-2.824 0.871,-2.125 1.429,-4.34 1.937,-6.574 0.246,-1.094 0.504,-2.188 0.774,-3.274 0.136,-0.566 0.312,-1.129 0.468,-1.691 0.149,-0.531 0.274,-1.066 0.61,-1.524 0.336,-0.457 0.679,-0.91 1.238,-1.105 0.246,-0.09 0.367,-0.262 0.422,-0.492 0.039,-0.18 0.082,-0.363 0.082,-0.539 0,-0.809 0,-1.617 -0.02,-2.418 -0.019,-0.582 -0.078,-1.156 -0.117,-1.735"
                     style="fill:#000000;fill-opacity:1;fill-rule:nonzero;stroke:none"
                     id="path1993" />
                </g>
              </g>
            </g>
          </g>
        </g>
      </g>
    </g>
  </g>
</svg>
