<?xml version="1.0" encoding="UTF-8" standalone="no"?>
<!-- Created with Inkscape (http://www.inkscape.org/) -->

<svg
   width="61mm"
   height="61mm"
   viewBox="0 0 61 61"
   version="1.1"
   id="svg2192"
   xmlns="http://www.w3.org/2000/svg"
   xmlns:svg="http://www.w3.org/2000/svg">
  <defs
     id="defs2189">
    <clipPath
       clipPathUnits="userSpaceOnUse"
       id="clipPath2071">
      <path
         d="M 67,68 H 238 V 239 H 67 Z"
         id="path2069" />
    </clipPath>
    <clipPath
       clipPathUnits="userSpaceOnUse"
       id="clipPath2077">
      <path
         d="m 67.188,153.316 c 0,46.946 38.054,85.004 85,85.004 46.945,0 85,-38.058 85,-85.004 0,-46.941 -38.055,-85 -85,-85 -46.946,0 -85,38.059 -85,85"
         id="path2075" />
    </clipPath>
    <clipPath
       clipPathUnits="userSpaceOnUse"
       id="clipPath2087">
      <path
         d="M 0,0 H 801 V 801 H 0 Z"
         id="path2085" />
    </clipPath>
    <clipPath
       clipPathUnits="userSpaceOnUse"
       id="clipPath2059">
      <path
         d="M 0,0 H 801 V 801 H 0 Z"
         id="path2057" />
    </clipPath>
    <clipPath
       clipPathUnits="userSpaceOnUse"
       id="clipPath1523">
      <path
         d="M 315,68 H 485 V 239 H 315 Z"
         id="path1521" />
    </clipPath>
    <clipPath
       clipPathUnits="userSpaceOnUse"
       id="clipPath1529">
      <path
         d="m 315,153.316 c 0,46.946 38.055,85.004 85,85.004 46.945,0 85,-38.058 85,-85.004 0,-46.941 -38.055,-85 -85,-85 -46.945,0 -85,38.059 -85,85"
         id="path1527" />
    </clipPath>
    <clipPath
       clipPathUnits="userSpaceOnUse"
       id="clipPath1537">
      <path
         d="M 0,0 H 801 V 801 H 0 Z"
         id="path1535" />
    </clipPath>
    <clipPath
       clipPathUnits="userSpaceOnUse"
       id="clipPath1541">
      <path
         d="m 372.238,152.656 h 11.043 v 27.809 h -11.043 z"
         id="path1539" />
    </clipPath>
    <clipPath
       clipPathUnits="userSpaceOnUse"
       id="clipPath1545">
      <path
         d="M 0,0 H 801 V 801 H 0 Z"
         id="path1543" />
    </clipPath>
    <clipPath
       clipPathUnits="userSpaceOnUse"
       id="clipPath1549">
      <path
         d="m 372.238,152.656 h 11.043 v 27.809 h -11.043 z"
         id="path1547" />
    </clipPath>
    <clipPath
       clipPathUnits="userSpaceOnUse"
       id="clipPath1553">
      <path
         d="M 0,0 H 801 V 801 H 0 Z"
         id="path1551" />
    </clipPath>
    <clipPath
       clipPathUnits="userSpaceOnUse"
       id="clipPath1557">
      <path
         d="m 412.062,150.66 h 11.402 v 29.406 h -11.402 z"
         id="path1555" />
    </clipPath>
    <clipPath
       clipPathUnits="userSpaceOnUse"
       id="clipPath1561">
      <path
         d="M 0,0 H 801 V 801 H 0 Z"
         id="path1559" />
    </clipPath>
    <clipPath
       clipPathUnits="userSpaceOnUse"
       id="clipPath1565">
      <path
         d="m 412.062,150.656 h 11.402 v 29.41 h -11.402 z"
         id="path1563" />
    </clipPath>
    <clipPath
       clipPathUnits="userSpaceOnUse"
       id="clipPath1569">
      <path
         d="M 0,0 H 801 V 801 H 0 Z"
         id="path1567" />
    </clipPath>
    <clipPath
       clipPathUnits="userSpaceOnUse"
       id="clipPath1573">
      <path
         d="m 367.738,154.387 h 9.379 v 25.461 h -9.379 z"
         id="path1571" />
    </clipPath>
    <clipPath
       clipPathUnits="userSpaceOnUse"
       id="clipPath1577">
      <path
         d="M 0,0 H 801 V 801 H 0 Z"
         id="path1575" />
    </clipPath>
    <clipPath
       clipPathUnits="userSpaceOnUse"
       id="clipPath1581">
      <path
         d="m 367.738,154.387 h 9.379 v 25.461 h -9.379 z"
         id="path1579" />
    </clipPath>
    <clipPath
       clipPathUnits="userSpaceOnUse"
       id="clipPath1585">
      <path
         d="M 0,0 H 801 V 801 H 0 Z"
         id="path1583" />
    </clipPath>
    <clipPath
       clipPathUnits="userSpaceOnUse"
       id="clipPath1589">
      <path
         d="m 405.746,151.125 h 10.91 v 26.945 h -10.91 z"
         id="path1587" />
    </clipPath>
    <clipPath
       clipPathUnits="userSpaceOnUse"
       id="clipPath1593">
      <path
         d="M 0,0 H 801 V 801 H 0 Z"
         id="path1591" />
    </clipPath>
    <clipPath
       clipPathUnits="userSpaceOnUse"
       id="clipPath1597">
      <path
         d="m 405.746,151.125 h 10.91 v 26.945 h -10.91 z"
         id="path1595" />
    </clipPath>
    <clipPath
       clipPathUnits="userSpaceOnUse"
       id="clipPath1601">
      <path
         d="M 0,0 H 801 V 801 H 0 Z"
         id="path1599" />
    </clipPath>
    <clipPath
       clipPathUnits="userSpaceOnUse"
       id="clipPath1435">
      <path
         d="M 563,68 H 734 V 239 H 563 Z"
         id="path1433" />
    </clipPath>
    <clipPath
       clipPathUnits="userSpaceOnUse"
       id="clipPath1441">
      <path
         d="m 563.395,153.316 c 0,46.946 38.054,85.004 84.996,85.004 46.945,0 85.004,-38.058 85.004,-85.004 0,-46.941 -38.059,-85 -85.004,-85 -46.942,0 -84.996,38.059 -84.996,85"
         id="path1439" />
    </clipPath>
    <clipPath
       clipPathUnits="userSpaceOnUse"
       id="clipPath1451">
      <path
         d="M 0,0 H 801 V 801 H 0 Z"
         id="path1449" />
    </clipPath>
    <clipPath
       clipPathUnits="userSpaceOnUse"
       id="clipPath1509">
      <path
         d="M 0,0 H 801 V 801 H 0 Z"
         id="path1507" />
    </clipPath>
    <clipPath
       clipPathUnits="userSpaceOnUse"
       id="clipPath1869">
      <path
         d="M 67,288 H 238 V 459 H 67 Z"
         id="path1867" />
    </clipPath>
    <clipPath
       clipPathUnits="userSpaceOnUse"
       id="clipPath1875">
      <path
         d="m 67.188,373.852 c 0,46.945 38.054,85 85,85 46.945,0 85,-38.055 85,-85 0,-46.946 -38.055,-85 -85,-85 -46.946,0 -85,38.054 -85,85"
         id="path1873" />
    </clipPath>
    <clipPath
       clipPathUnits="userSpaceOnUse"
       id="clipPath1885">
      <path
         d="M 0,0 H 801 V 801 H 0 Z"
         id="path1883" />
    </clipPath>
    <clipPath
       clipPathUnits="userSpaceOnUse"
       id="clipPath2135">
      <path
         d="M 315,288 H 485 V 459 H 315 Z"
         id="path2133" />
    </clipPath>
    <clipPath
       clipPathUnits="userSpaceOnUse"
       id="clipPath2141">
      <path
         d="m 315,373.852 c 0,46.945 38.055,85 85,85 46.945,0 85,-38.055 85,-85 0,-46.946 -38.055,-85 -85,-85 -46.945,0 -85,38.054 -85,85"
         id="path2139" />
    </clipPath>
    <clipPath
       clipPathUnits="userSpaceOnUse"
       id="clipPath2151">
      <path
         d="M 0,0 H 801 V 801 H 0 Z"
         id="path2149" />
    </clipPath>
    <clipPath
       clipPathUnits="userSpaceOnUse"
       id="clipPath1371">
      <path
         d="M 563,288 H 734 V 459 H 563 Z"
         id="path1369" />
    </clipPath>
    <clipPath
       clipPathUnits="userSpaceOnUse"
       id="clipPath1377">
      <path
         d="m 563.395,373.852 c 0,46.945 38.054,85 84.996,85 46.945,0 85.004,-38.055 85.004,-85 0,-46.946 -38.059,-85 -85.004,-85 -46.942,0 -84.996,38.054 -84.996,85"
         id="path1375" />
    </clipPath>
    <clipPath
       clipPathUnits="userSpaceOnUse"
       id="clipPath1387">
      <path
         d="M 0,0 H 801 V 801 H 0 Z"
         id="path1385" />
    </clipPath>
  </defs>
  <g
     id="layer1">
    <path
       d="m 60.640448,30.147723 c 0,-16.560094 -13.426369,-29.98611061 -29.987521,-29.98611061 -16.560095,0 -29.98469959,13.42601661 -29.98469959,29.98611061 0,16.561152 13.42460459,29.987169 29.98469959,29.987169 16.561152,0 29.987521,-13.426017 29.987521,-29.987169"
       style="fill:#f3724b;fill-opacity:1;fill-rule:nonzero;stroke:none;stroke-width:0.352778"
       id="path1355" />
    <g
       id="g1365"
       transform="matrix(0.35277777,0,0,0.35277777,-198.44579,-101.5878)">
      <g
         id="g1367"
         clip-path="url(#clipPath1371)">
        <g
           id="g1373"
           clip-path="url(#clipPath1377)">
          <g
             id="g1379">
            <g
               id="g1381">
              <g
                 id="g1383"
                 clip-path="url(#clipPath1387)">
                <g
                   id="g1389">
                  <path
                     d="m 646.824,398.086 c -28.117,0 -50.914,27.207 -50.914,60.766 h 101.828 c 0,-33.559 -22.793,-60.766 -50.914,-60.766"
                     style="fill:#fbbdb0;fill-opacity:1;fill-rule:nonzero;stroke:none"
                     id="path1391" />
                  <path
                     d="m 572.684,340.293 c 0,0 27.714,-12.559 36.863,1.719 9.152,14.281 12.223,19.07 12.223,19.07 0,0 -29.547,9.691 -38.7,-4.586 -9.152,-14.281 -10.386,-16.203 -10.386,-16.203"
                     style="fill:#fbbdb0;fill-opacity:1;fill-rule:nonzero;stroke:none"
                     id="path1393" />
                  <path
                     d="m 581.383,343.98 c 0,0 17.89,-8.109 23.801,1.106 5.906,9.219 7.89,12.316 7.89,12.316 0,0 -19.082,6.254 -24.988,-2.964 -5.906,-9.215 -6.703,-10.458 -6.703,-10.458"
                     style="fill:#d76c79;fill-opacity:1;fill-rule:nonzero;stroke:none"
                     id="path1395" />
                  <path
                     d="m 724.102,342.922 c 0,0 -26.887,-14.231 -36.895,-0.539 -10.012,13.699 -13.371,18.293 -13.371,18.293 0,0 28.902,11.476 38.91,-2.215 10.008,-13.691 11.356,-15.539 11.356,-15.539"
                     style="fill:#fbbdb0;fill-opacity:1;fill-rule:nonzero;stroke:none"
                     id="path1397" />
                  <path
                     d="m 715.199,346.07 c 0,0 -17.363,-9.187 -23.824,-0.347 -6.461,8.836 -8.633,11.808 -8.633,11.808 0,0 18.664,7.407 25.125,-1.433 6.457,-8.836 7.332,-10.028 7.332,-10.028"
                     style="fill:#d76c79;fill-opacity:1;fill-rule:nonzero;stroke:none"
                     id="path1399" />
                  <path
                     d="m 685.074,363.707 c 0.199,-1.164 0.336,-2.348 0.336,-3.551 0,-15.633 -17.273,-28.301 -38.59,-28.301 -21.308,0 -38.582,12.668 -38.582,28.301 0,1.203 0.133,2.387 0.332,3.551 -4.531,5.246 -7.191,11.473 -7.191,18.168 0,18.629 20.344,33.73 45.441,33.73 25.102,0 45.45,-15.101 45.45,-33.73 0,-6.695 -2.661,-12.922 -7.196,-18.168"
                     style="fill:#fbbdb0;fill-opacity:1;fill-rule:nonzero;stroke:none"
                     id="path1401" />
                  <path
                     d="m 668.863,360.957 c 0,0 -11.34,-3.289 -11.082,8.242 0,0 11.082,4.028 11.082,-8.242"
                     style="fill:#ffffff;fill-opacity:1;fill-rule:nonzero;stroke:none"
                     id="path1403" />
                  <path
                     d="m 659.602,364.531 c 0,1.516 1.226,2.75 2.75,2.75 1.515,0 2.746,-1.234 2.746,-2.75 0,-1.519 -1.231,-2.75 -2.746,-2.75 -1.524,0 -2.75,1.231 -2.75,2.75"
                     style="fill:#191009;fill-opacity:1;fill-rule:nonzero;stroke:none"
                     id="path1405" />
                  <path
                     d="m 661.059,364.277 c 0,0.356 0.289,0.645 0.644,0.645 0.359,0 0.645,-0.289 0.645,-0.645 0,-0.355 -0.286,-0.648 -0.645,-0.648 -0.355,0 -0.644,0.293 -0.644,0.648"
                     style="fill:#ffffff;fill-opacity:1;fill-rule:nonzero;stroke:none"
                     id="path1407" />
                  <path
                     d="m 624.785,360.957 c 0,0 11.344,-3.289 11.086,8.242 0,0 -11.086,4.028 -11.086,-8.242"
                     style="fill:#ffffff;fill-opacity:1;fill-rule:nonzero;stroke:none"
                     id="path1409" />
                  <path
                     d="m 634.051,364.531 c 0,1.516 -1.227,2.75 -2.746,2.75 -1.524,0 -2.75,-1.234 -2.75,-2.75 0,-1.519 1.226,-2.75 2.75,-2.75 1.519,0 2.746,1.231 2.746,2.75"
                     style="fill:#191009;fill-opacity:1;fill-rule:nonzero;stroke:none"
                     id="path1411" />
                  <path
                     d="m 632.59,364.277 c 0,0.356 -0.285,0.645 -0.645,0.645 -0.351,0 -0.64,-0.289 -0.64,-0.645 0,-0.355 0.289,-0.648 0.64,-0.648 0.36,0 0.645,0.293 0.645,0.648"
                     style="fill:#ffffff;fill-opacity:1;fill-rule:nonzero;stroke:none"
                     id="path1413" />
                  <path
                     d="m 646.824,397.383 c -8.121,0 -14.488,-4.195 -14.488,-9.555 0,-5.355 6.367,-9.551 14.488,-9.551 8.125,0 14.488,4.196 14.488,9.551 0,5.36 -6.363,9.555 -14.488,9.555"
                     style="fill:#d76c79;fill-opacity:1;fill-rule:nonzero;stroke:none"
                     id="path1415" />
                  <path
                     d="m 643.316,387.242 c 0,1.504 -1.222,2.723 -2.726,2.723 -1.504,0 -2.727,-1.219 -2.727,-2.723 0,-1.508 1.223,-2.73 2.727,-2.73 1.504,0 2.726,1.222 2.726,2.73"
                     style="fill:#3c3c3b;fill-opacity:1;fill-rule:nonzero;stroke:none"
                     id="path1417" />
                  <path
                     d="m 655.219,387.242 c 0,1.504 -1.223,2.723 -2.731,2.723 -1.504,0 -2.722,-1.219 -2.722,-2.723 0,-1.508 1.218,-2.73 2.722,-2.73 1.508,0 2.731,1.222 2.731,2.73"
                     style="fill:#3c3c3b;fill-opacity:1;fill-rule:nonzero;stroke:none"
                     id="path1419" />
                  <path
                     d="m 646.695,393.887 c 0,0 -5.215,-2.481 -10.179,0 -4.965,2.484 -9.559,6.828 -12.414,0.871 0,0 -0.125,9.308 11.296,8.195 11.422,-1.117 11.793,-7.574 11.297,-9.066"
                     style="fill:#26232c;fill-opacity:1;fill-rule:nonzero;stroke:none"
                     id="path1421" />
                  <path
                     d="m 646.953,393.887 c 0,0 5.215,-2.481 10.18,0 4.965,2.484 9.558,6.828 12.414,0.871 0,0 0.125,9.308 -11.297,8.195 -11.422,-1.117 -11.793,-7.574 -11.297,-9.066"
                     style="fill:#26232c;fill-opacity:1;fill-rule:nonzero;stroke:none"
                     id="path1423" />
                  <path
                     d="m 661.754,412.375 c -2.066,-0.687 -12.359,5.234 -12.359,5.234 -0.629,-0.671 -1.54,-1.093 -2.551,-1.093 -1.016,0 -1.926,0.422 -2.551,1.093 0,0 -10.313,-6.246 -12.273,-5.089 -1.961,1.148 -2.036,13.351 0,14.554 2.031,1.203 12.464,-4.898 12.464,-4.898 0.614,0.558 1.446,0.902 2.36,0.902 0.914,0 1.742,-0.344 2.355,-0.902 0,0 10.781,6.332 12.465,4.898 1.688,-1.429 2.156,-14.012 0.09,-14.699"
                     style="fill:#000000;fill-opacity:1;fill-rule:nonzero;stroke:none"
                     id="path1425" />
                  <path
                     d="m 678.656,357.328 c -0.734,0 -1.332,-0.148 -1.332,-0.332 0,-0.18 0.598,-0.328 1.332,-0.328 0.735,0 1.332,0.148 1.332,0.328 0,0.184 -0.597,0.332 -1.332,0.332 m -2.301,6.465 c -0.062,2.402 -0.464,4.746 -1.32,7 -0.347,0.91 -0.816,1.754 -1.523,2.437 -0.785,0.766 -1.766,1.172 -2.809,1.454 -1.308,0.355 -2.648,0.441 -3.996,0.449 -2.035,0.023 -4.043,-0.231 -6.031,-0.656 -1.969,-0.418 -3.539,-1.45 -4.789,-3.012 -1.606,-2 -2.629,-4.274 -3.203,-6.762 -0.266,-1.148 -0.493,-2.305 -0.461,-3.492 0.011,-0.512 0.062,-1.027 0.16,-1.531 0.226,-1.254 0.996,-2.071 2.156,-2.543 1.168,-0.473 2.383,-0.758 3.613,-1.004 1.368,-0.27 2.746,-0.473 4.141,-0.563 1.086,-0.07 2.176,-0.101 2.91,-0.132 2.918,0.144 5.465,0.355 7.942,1.066 0.457,0.129 0.894,0.336 1.32,0.539 0.41,0.191 0.723,0.504 0.93,0.91 0.222,0.445 0.449,0.895 0.628,1.359 0.207,0.551 0.254,1.137 0.274,1.715 0.039,0.922 0.086,1.844 0.058,2.766 m -35.644,0.738 c -0.465,1.989 -1.238,3.852 -2.27,5.614 -0.558,0.96 -1.199,1.863 -2.011,2.632 -1.071,1.024 -2.356,1.625 -3.77,1.996 -2.859,0.747 -5.754,0.934 -8.68,0.497 -0.574,-0.086 -1.14,-0.239 -1.703,-0.379 -1.164,-0.301 -2.043,-0.977 -2.715,-1.977 -0.738,-1.102 -1.195,-2.316 -1.5,-3.598 -0.398,-1.671 -0.621,-3.371 -0.792,-5.082 -0.098,-0.992 -0.079,-1.98 0.042,-2.964 0.063,-0.497 0.106,-1 0.215,-1.485 0.399,-1.73 1.465,-2.828 3.188,-3.281 1.566,-0.41 3.164,-0.652 4.781,-0.781 1.192,-0.102 2.395,-0.149 3.168,-0.196 2.758,0.035 5.07,0.211 7.344,0.735 0.93,0.215 1.875,0.406 2.722,0.859 0.418,0.223 0.825,0.484 1.192,0.789 0.598,0.496 0.906,1.172 1.039,1.938 0.266,1.582 0.113,3.136 -0.25,4.683 m -25.758,-7.203 c -0.738,0 -1.336,-0.148 -1.336,-0.332 0,-0.18 0.598,-0.328 1.336,-0.328 0.735,0 1.332,0.148 1.332,0.328 0,0.184 -0.597,0.332 -1.332,0.332 m 66.535,-2.156 c -0.015,-0.223 -0.117,-0.363 -0.332,-0.418 -0.152,-0.039 -0.301,-0.082 -0.453,-0.106 -2.168,-0.339 -4.336,-0.671 -6.527,-0.824 -1.75,-0.121 -3.5,-0.199 -5.25,-0.277 -3.375,-0.149 -6.742,-0.074 -10.098,0.348 -2.051,0.261 -4.078,0.628 -6.047,1.265 -1,0.324 -1.98,0.699 -2.976,1.016 -1.559,0.492 -3.153,0.715 -4.77,0.414 -0.969,-0.184 -1.93,-0.461 -2.871,-0.766 -1.703,-0.551 -3.406,-1.094 -5.176,-1.422 -3.437,-0.632 -6.898,-0.925 -10.129,-0.89 -2.632,0.004 -4.996,0.093 -7.351,0.379 -1.926,0.226 -3.856,0.484 -5.789,0.75 -0.407,0.054 -0.809,0.175 -1.207,0.281 -0.215,0.058 -0.36,0.199 -0.364,0.437 -0.043,1.141 -0.078,2.278 -0.109,3.418 0,0.172 0.043,0.344 0.066,0.516 0.024,0.145 0.102,0.246 0.239,0.305 0.148,0.066 0.301,0.129 0.429,0.218 0.637,0.442 0.942,1.11 1.184,1.801 0.172,0.5 0.285,1.012 0.426,1.52 0.09,0.312 0.207,0.621 0.281,0.941 0.332,1.484 0.641,2.981 0.984,4.465 0.329,1.414 0.75,2.801 1.43,4.098 0.758,1.445 1.836,2.554 3.367,3.191 0.926,0.387 1.891,0.633 2.879,0.789 1.77,0.281 3.555,0.317 5.34,0.184 1.809,-0.129 3.594,-0.403 5.336,-0.93 1.289,-0.391 2.512,-0.937 3.551,-1.816 1.582,-1.352 2.851,-2.954 3.832,-4.789 0.98,-1.836 1.664,-3.79 2.281,-5.77 0.176,-0.566 0.344,-1.137 0.547,-1.695 0.305,-0.821 0.891,-1.328 1.769,-1.465 0.282,-0.043 0.571,-0.055 0.852,-0.035 0.656,0.035 1.289,0.175 1.727,0.722 0.191,0.243 0.367,0.504 0.492,0.785 0.238,0.543 0.465,1.098 0.644,1.665 0.774,2.441 1.801,4.769 3.094,6.984 1.074,1.844 2.492,3.324 4.371,4.351 1.328,0.727 2.75,1.188 4.231,1.477 2.226,0.434 4.476,0.535 6.738,0.438 1.367,-0.059 2.715,-0.235 4.031,-0.625 1.348,-0.407 2.531,-1.063 3.418,-2.188 0.574,-0.726 1,-1.539 1.348,-2.391 0.738,-1.793 1.211,-3.668 1.64,-5.554 0.207,-0.926 0.426,-1.848 0.653,-2.766 0.117,-0.48 0.261,-0.953 0.398,-1.43 0.121,-0.449 0.231,-0.902 0.516,-1.285 0.281,-0.39 0.57,-0.769 1.047,-0.937 0.203,-0.074 0.308,-0.219 0.355,-0.414 0.031,-0.153 0.07,-0.309 0.07,-0.457 0,-0.684 0,-1.364 -0.019,-2.047 -0.016,-0.488 -0.066,-0.973 -0.098,-1.461"
                     style="fill:#000000;fill-opacity:1;fill-rule:nonzero;stroke:none"
                     id="path1427" />
                </g>
              </g>
            </g>
          </g>
        </g>
      </g>
    </g>
  </g>
</svg>
