<?xml version="1.0" encoding="UTF-8" standalone="no"?>
<!-- Created with Inkscape (http://www.inkscape.org/) -->

<svg
   width="61mm"
   height="61mm"
   viewBox="0 0 61 61"
   version="1.1"
   id="svg2192"
   xmlns="http://www.w3.org/2000/svg"
   xmlns:svg="http://www.w3.org/2000/svg">
  <defs
     id="defs2189">
    <clipPath
       clipPathUnits="userSpaceOnUse"
       id="clipPath2071">
      <path
         d="M 67,68 H 238 V 239 H 67 Z"
         id="path2069" />
    </clipPath>
    <clipPath
       clipPathUnits="userSpaceOnUse"
       id="clipPath2077">
      <path
         d="m 67.188,153.316 c 0,46.946 38.054,85.004 85,85.004 46.945,0 85,-38.058 85,-85.004 0,-46.941 -38.055,-85 -85,-85 -46.946,0 -85,38.059 -85,85"
         id="path2075" />
    </clipPath>
    <clipPath
       clipPathUnits="userSpaceOnUse"
       id="clipPath2087">
      <path
         d="M 0,0 H 801 V 801 H 0 Z"
         id="path2085" />
    </clipPath>
    <clipPath
       clipPathUnits="userSpaceOnUse"
       id="clipPath2059">
      <path
         d="M 0,0 H 801 V 801 H 0 Z"
         id="path2057" />
    </clipPath>
    <clipPath
       clipPathUnits="userSpaceOnUse"
       id="clipPath1523">
      <path
         d="M 315,68 H 485 V 239 H 315 Z"
         id="path1521" />
    </clipPath>
    <clipPath
       clipPathUnits="userSpaceOnUse"
       id="clipPath1529">
      <path
         d="m 315,153.316 c 0,46.946 38.055,85.004 85,85.004 46.945,0 85,-38.058 85,-85.004 0,-46.941 -38.055,-85 -85,-85 -46.945,0 -85,38.059 -85,85"
         id="path1527" />
    </clipPath>
    <clipPath
       clipPathUnits="userSpaceOnUse"
       id="clipPath1537">
      <path
         d="M 0,0 H 801 V 801 H 0 Z"
         id="path1535" />
    </clipPath>
    <clipPath
       clipPathUnits="userSpaceOnUse"
       id="clipPath1541">
      <path
         d="m 372.238,152.656 h 11.043 v 27.809 h -11.043 z"
         id="path1539" />
    </clipPath>
    <clipPath
       clipPathUnits="userSpaceOnUse"
       id="clipPath1545">
      <path
         d="M 0,0 H 801 V 801 H 0 Z"
         id="path1543" />
    </clipPath>
    <clipPath
       clipPathUnits="userSpaceOnUse"
       id="clipPath1549">
      <path
         d="m 372.238,152.656 h 11.043 v 27.809 h -11.043 z"
         id="path1547" />
    </clipPath>
    <clipPath
       clipPathUnits="userSpaceOnUse"
       id="clipPath1553">
      <path
         d="M 0,0 H 801 V 801 H 0 Z"
         id="path1551" />
    </clipPath>
    <clipPath
       clipPathUnits="userSpaceOnUse"
       id="clipPath1557">
      <path
         d="m 412.062,150.66 h 11.402 v 29.406 h -11.402 z"
         id="path1555" />
    </clipPath>
    <clipPath
       clipPathUnits="userSpaceOnUse"
       id="clipPath1561">
      <path
         d="M 0,0 H 801 V 801 H 0 Z"
         id="path1559" />
    </clipPath>
    <clipPath
       clipPathUnits="userSpaceOnUse"
       id="clipPath1565">
      <path
         d="m 412.062,150.656 h 11.402 v 29.41 h -11.402 z"
         id="path1563" />
    </clipPath>
    <clipPath
       clipPathUnits="userSpaceOnUse"
       id="clipPath1569">
      <path
         d="M 0,0 H 801 V 801 H 0 Z"
         id="path1567" />
    </clipPath>
    <clipPath
       clipPathUnits="userSpaceOnUse"
       id="clipPath1573">
      <path
         d="m 367.738,154.387 h 9.379 v 25.461 h -9.379 z"
         id="path1571" />
    </clipPath>
    <clipPath
       clipPathUnits="userSpaceOnUse"
       id="clipPath1577">
      <path
         d="M 0,0 H 801 V 801 H 0 Z"
         id="path1575" />
    </clipPath>
    <clipPath
       clipPathUnits="userSpaceOnUse"
       id="clipPath1581">
      <path
         d="m 367.738,154.387 h 9.379 v 25.461 h -9.379 z"
         id="path1579" />
    </clipPath>
    <clipPath
       clipPathUnits="userSpaceOnUse"
       id="clipPath1585">
      <path
         d="M 0,0 H 801 V 801 H 0 Z"
         id="path1583" />
    </clipPath>
    <clipPath
       clipPathUnits="userSpaceOnUse"
       id="clipPath1589">
      <path
         d="m 405.746,151.125 h 10.91 v 26.945 h -10.91 z"
         id="path1587" />
    </clipPath>
    <clipPath
       clipPathUnits="userSpaceOnUse"
       id="clipPath1593">
      <path
         d="M 0,0 H 801 V 801 H 0 Z"
         id="path1591" />
    </clipPath>
    <clipPath
       clipPathUnits="userSpaceOnUse"
       id="clipPath1597">
      <path
         d="m 405.746,151.125 h 10.91 v 26.945 h -10.91 z"
         id="path1595" />
    </clipPath>
    <clipPath
       clipPathUnits="userSpaceOnUse"
       id="clipPath1601">
      <path
         d="M 0,0 H 801 V 801 H 0 Z"
         id="path1599" />
    </clipPath>
    <clipPath
       clipPathUnits="userSpaceOnUse"
       id="clipPath1435">
      <path
         d="M 563,68 H 734 V 239 H 563 Z"
         id="path1433" />
    </clipPath>
    <clipPath
       clipPathUnits="userSpaceOnUse"
       id="clipPath1441">
      <path
         d="m 563.395,153.316 c 0,46.946 38.054,85.004 84.996,85.004 46.945,0 85.004,-38.058 85.004,-85.004 0,-46.941 -38.059,-85 -85.004,-85 -46.942,0 -84.996,38.059 -84.996,85"
         id="path1439" />
    </clipPath>
    <clipPath
       clipPathUnits="userSpaceOnUse"
       id="clipPath1451">
      <path
         d="M 0,0 H 801 V 801 H 0 Z"
         id="path1449" />
    </clipPath>
    <clipPath
       clipPathUnits="userSpaceOnUse"
       id="clipPath1509">
      <path
         d="M 0,0 H 801 V 801 H 0 Z"
         id="path1507" />
    </clipPath>
    <clipPath
       clipPathUnits="userSpaceOnUse"
       id="clipPath1869">
      <path
         d="M 67,288 H 238 V 459 H 67 Z"
         id="path1867" />
    </clipPath>
    <clipPath
       clipPathUnits="userSpaceOnUse"
       id="clipPath1875">
      <path
         d="m 67.188,373.852 c 0,46.945 38.054,85 85,85 46.945,0 85,-38.055 85,-85 0,-46.946 -38.055,-85 -85,-85 -46.946,0 -85,38.054 -85,85"
         id="path1873" />
    </clipPath>
    <clipPath
       clipPathUnits="userSpaceOnUse"
       id="clipPath1885">
      <path
         d="M 0,0 H 801 V 801 H 0 Z"
         id="path1883" />
    </clipPath>
  </defs>
  <g
     id="layer1">
    <path
       d="m 60.78504,30.726103 c 0,-16.560094 -13.424958,-29.98611061 -29.986111,-29.98611061 -16.561505,0 -29.98611026,13.42601661 -29.98611026,29.98611061 0,16.561152 13.42460526,29.987169 29.98611026,29.987169 16.561153,0 29.986111,-13.426017 29.986111,-29.987169"
       style="fill:#6980a2;fill-opacity:1;fill-rule:nonzero;stroke:none;stroke-width:0.352778"
       id="path1359" />
    <g
       id="g1863"
       transform="matrix(0.35277777,0,0,0.35277777,-23.033919,-101.21105)">
      <g
         id="g1865"
         clip-path="url(#clipPath1869)">
        <g
           id="g1871"
           clip-path="url(#clipPath1875)">
          <g
             id="g1877">
            <g
               id="g1879">
              <g
                 id="g1881"
                 clip-path="url(#clipPath1885)">
                <g
                   id="g1887">
                  <path
                     d="m 165.004,345.609 c 4.016,-11.226 21.211,-15.48 21.211,-15.48 0,0 7.305,21.355 -0.563,30.949"
                     style="fill:#ed521a;fill-opacity:1;fill-rule:nonzero;stroke:none"
                     id="path1889" />
                  <path
                     d="m 182.656,336.734 c 0,0 -8.289,1.821 -12.441,9.192 -4.156,7.371 12.996,10.129 12.996,10.129 0,0 4.016,-11.227 -0.555,-19.321"
                     style="fill:#982508;fill-opacity:1;fill-rule:nonzero;stroke:none"
                     id="path1891" />
                  <path
                     d="m 136.598,347.098 c -4.633,-10.989 -22.032,-14.293 -22.032,-14.293 0,0 -6.125,21.726 2.258,30.871"
                     style="fill:#ed521a;fill-opacity:1;fill-rule:nonzero;stroke:none"
                     id="path1893" />
                  <path
                     d="m 118.48,339.207 c 0,0 8.372,1.363 12.93,8.492 4.551,7.133 -12.422,10.832 -12.422,10.832 0,0 -4.625,-10.992 -0.508,-19.324"
                     style="fill:#982508;fill-opacity:1;fill-rule:nonzero;stroke:none"
                     id="path1895" />
                  <path
                     d="m 151.461,408.25 c -26.008,0 -47.094,22.656 -47.094,50.605 h 94.188 c 0,-27.949 -21.082,-50.605 -47.094,-50.605"
                     style="fill:#ed521a;fill-opacity:1;fill-rule:nonzero;stroke:none"
                     id="path1897" />
                  <path
                     d="m 112.219,376.797 c 0,22.262 18.047,40.312 40.308,40.312 22.266,0 40.313,-18.05 40.313,-40.312 0,-22.266 -17.133,-32.817 -39.399,-32.817 -22.265,0 -41.222,10.551 -41.222,32.817"
                     style="fill:#ed521a;fill-opacity:1;fill-rule:nonzero;stroke:none"
                     id="path1899" />
                  <path
                     d="m 167.957,417.164 c -2.066,-0.687 -12.363,5.231 -12.363,5.231 -0.625,-0.668 -1.535,-1.094 -2.551,-1.094 -1.012,0 -1.922,0.426 -2.551,1.094 0,0 -10.312,-6.243 -12.273,-5.09 -1.961,1.152 -2.031,13.351 0,14.558 2.031,1.203 12.469,-4.902 12.469,-4.902 0.613,0.559 1.441,0.906 2.355,0.906 0.918,0 1.742,-0.347 2.355,-0.902 0,0 10.786,6.328 12.469,4.898 1.688,-1.429 2.156,-14.015 0.09,-14.699"
                     style="fill:#000000;fill-opacity:1;fill-rule:nonzero;stroke:none"
                     id="path1901" />
                  <path
                     d="m 154.98,436.098 c 0,-1.313 -1.062,-2.375 -2.375,-2.375 -1.312,0 -2.375,1.062 -2.375,2.375 0,1.312 1.063,2.375 2.375,2.375 1.313,0 2.375,-1.063 2.375,-2.375"
                     style="fill:#191009;fill-opacity:1;fill-rule:nonzero;stroke:none"
                     id="path1903" />
                  <path
                     d="m 131.973,366.773 c 0,0 12.398,-3.593 12.117,9.012 0,0 -12.117,4.399 -12.117,-9.012"
                     style="fill:#ffffff;fill-opacity:1;fill-rule:nonzero;stroke:none"
                     id="path1905" />
                  <path
                     d="m 141.398,371.387 c 0,1.66 -1.347,3.008 -3.007,3.008 -1.661,0 -3.008,-1.348 -3.008,-3.008 0,-1.66 1.347,-3.008 3.008,-3.008 1.66,0 3.007,1.348 3.007,3.008"
                     style="fill:#191009;fill-opacity:1;fill-rule:nonzero;stroke:none"
                     id="path1907" />
                  <path
                     d="m 140.508,369.977 c 0,0.39 -0.317,0.703 -0.707,0.703 -0.387,0 -0.703,-0.313 -0.703,-0.703 0,-0.391 0.316,-0.707 0.703,-0.707 0.39,0 0.707,0.316 0.707,0.707"
                     style="fill:#ffffff;fill-opacity:1;fill-rule:nonzero;stroke:none"
                     id="path1909" />
                  <path
                     d="m 174.551,366.773 c 0,0 -12.399,-3.593 -12.117,9.012 0,0 12.117,4.399 12.117,-9.012"
                     style="fill:#ffffff;fill-opacity:1;fill-rule:nonzero;stroke:none"
                     id="path1911" />
                  <path
                     d="m 165.129,371.387 c 0,1.66 1.344,3.008 3.004,3.008 1.66,0 3.008,-1.348 3.008,-3.008 0,-1.66 -1.348,-3.008 -3.008,-3.008 -1.66,0 -3.004,1.348 -3.004,3.008"
                     style="fill:#191009;fill-opacity:1;fill-rule:nonzero;stroke:none"
                     id="path1913" />
                  <path
                     d="m 166.02,369.977 c 0,0.39 0.312,0.703 0.703,0.703 0.39,0 0.707,-0.313 0.707,-0.703 0,-0.391 -0.317,-0.707 -0.707,-0.707 -0.391,0 -0.703,0.316 -0.703,0.707"
                     style="fill:#ffffff;fill-opacity:1;fill-rule:nonzero;stroke:none"
                     id="path1915" />
                  <path
                     d="m 168.887,391.418 c -0.184,0 -0.356,-0.102 -0.434,-0.277 -0.109,-0.239 0,-0.52 0.238,-0.625 0.848,-0.379 20.907,-9.332 28.434,-6.149 0.242,0.102 0.352,0.375 0.25,0.613 -0.102,0.243 -0.375,0.352 -0.621,0.254 -7.149,-3.035 -27.473,6.047 -27.676,6.141 -0.066,0.031 -0.129,0.043 -0.191,0.043"
                     style="fill:#191009;fill-opacity:1;fill-rule:nonzero;stroke:none"
                     id="path1917" />
                  <path
                     d="m 173.508,394.898 c -0.238,0 -0.446,-0.183 -0.469,-0.425 -0.031,-0.254 0.164,-0.489 0.422,-0.512 2.437,-0.25 23.875,-2.379 26.277,-1.215 0.235,0.117 0.336,0.399 0.223,0.629 -0.113,0.234 -0.391,0.336 -0.629,0.219 -1.641,-0.789 -16.312,0.347 -25.777,1.304 -0.016,0 -0.035,0 -0.047,0"
                     style="fill:#191009;fill-opacity:1;fill-rule:nonzero;stroke:none"
                     id="path1919" />
                  <path
                     d="m 193.676,403.664 c -0.129,0 -0.258,-0.059 -0.352,-0.16 -2.277,-2.551 -12.996,-3.488 -16.929,-3.633 -0.266,-0.008 -0.465,-0.23 -0.457,-0.488 0.007,-0.262 0.234,-0.438 0.488,-0.453 0.594,0.019 14.59,0.574 17.601,3.945 0.172,0.195 0.161,0.492 -0.035,0.668 -0.09,0.078 -0.203,0.121 -0.316,0.121"
                     style="fill:#191009;fill-opacity:1;fill-rule:nonzero;stroke:none"
                     id="path1921" />
                  <path
                     d="m 136.176,391.418 c 0.176,0 0.351,-0.102 0.426,-0.277 0.109,-0.239 0.003,-0.52 -0.231,-0.625 -0.859,-0.379 -20.91,-9.332 -28.441,-6.149 -0.239,0.102 -0.352,0.375 -0.246,0.613 0.097,0.243 0.371,0.352 0.617,0.254 7.152,-3.035 27.472,6.047 27.679,6.141 0.063,0.031 0.129,0.043 0.196,0.043"
                     style="fill:#191009;fill-opacity:1;fill-rule:nonzero;stroke:none"
                     id="path1923" />
                  <path
                     d="m 131.547,394.898 c 0.242,0 0.445,-0.183 0.473,-0.425 0.023,-0.254 -0.165,-0.489 -0.422,-0.512 -2.438,-0.25 -23.879,-2.379 -26.282,-1.215 -0.234,0.113 -0.332,0.399 -0.218,0.629 0.109,0.234 0.386,0.336 0.629,0.219 1.636,-0.789 16.312,0.347 25.777,1.304 0.016,0 0.031,0 0.043,0"
                     style="fill:#191009;fill-opacity:1;fill-rule:nonzero;stroke:none"
                     id="path1925" />
                  <path
                     d="m 111.379,403.664 c 0.129,0 0.258,-0.059 0.351,-0.16 2.282,-2.551 13,-3.488 16.934,-3.633 0.262,-0.008 0.465,-0.23 0.453,-0.488 -0.012,-0.262 -0.23,-0.438 -0.484,-0.453 -0.598,0.019 -14.594,0.574 -17.606,3.945 -0.172,0.195 -0.156,0.492 0.039,0.668 0.09,0.078 0.204,0.121 0.313,0.121"
                     style="fill:#191009;fill-opacity:1;fill-rule:nonzero;stroke:none"
                     id="path1927" />
                  <path
                     d="m 164.484,387.152 c -5.468,0 -10.113,2.918 -11.886,7.004 -2.172,-3.242 -6.297,-5.433 -11.036,-5.433 -6.992,0 -12.667,4.769 -12.667,10.656 0,5.883 5.675,10.656 12.667,10.656 5.469,0 10.114,-2.922 11.891,-7.004 2.168,3.242 6.293,5.434 11.031,5.434 6.996,0 12.668,-4.774 12.668,-10.656 0,-5.887 -5.672,-10.657 -12.668,-10.657"
                     style="fill:#ffffff;fill-opacity:1;fill-rule:nonzero;stroke:none"
                     id="path1929" />
                  <path
                     d="m 156.281,384.844 c 3.543,0 4.653,2.285 2.465,5.074 l -1.402,1.785 c -2.188,2.789 -5.77,2.789 -7.957,0 l -1.403,-1.785 c -2.187,-2.789 -1.078,-5.074 2.465,-5.074 z"
                     style="fill:#191009;fill-opacity:1;fill-rule:nonzero;stroke:none"
                     id="path1931" />
                  <path
                     d="m 184.961,366.625 c 0,0 -2.082,0.723 -2.234,0.723 -0.153,0 -0.704,-0.508 -0.629,-0.844 0.078,-0.336 0.691,-0.703 0.859,-0.703 0.168,0 2.004,0.629 2.004,0.629 z m -5.481,6.863 c -0.429,2.141 -1.988,4.348 -2.847,5.297 -2.391,2.203 -5.633,2.235 -8.082,2.235 -6.188,-0.274 -7.442,-2.387 -8.946,-4.594 -1.804,-2.848 -1.71,-6.43 -1.437,-8.817 0.273,-2.39 2.176,-3.89 3.398,-4.472 1.223,-0.582 4.278,-0.91 4.278,-0.91 3.371,-0.286 7.531,0.105 9.453,0.554 1.918,0.449 2.676,1.039 3.445,1.856 0.778,0.816 1.106,2.711 1.106,2.711 0.242,0.98 0.062,3.996 -0.368,6.14 m -33.875,2.938 c -1.5,2.207 -2.753,4.32 -8.941,4.594 -2.449,0 -5.695,-0.032 -8.082,-2.235 -0.859,-0.949 -2.418,-3.156 -2.848,-5.297 -0.429,-2.144 -0.609,-5.16 -0.371,-6.14 0,0 0.328,-1.895 1.106,-2.711 0.773,-0.817 1.531,-1.407 3.449,-1.856 1.918,-0.449 6.082,-0.84 9.449,-0.554 0,0 3.055,0.328 4.281,0.91 1.223,0.582 3.125,2.082 3.395,4.472 0.281,2.387 0.371,5.969 -1.438,8.817 m -23.121,-9.078 c -0.152,0 -2.234,-0.723 -2.234,-0.723 v -0.195 c 0,0 1.84,-0.629 2.008,-0.629 0.168,0 0.777,0.367 0.855,0.703 0.078,0.336 -0.472,0.844 -0.629,0.844 m 64.508,-2.59 c -0.039,-0.406 -1.508,-0.817 -1.508,-0.817 0,0 -1.839,-0.445 -3.757,-1.203 -1.918,-0.754 -5.84,-2.183 -7.637,-2.429 -1.797,-0.243 -6.121,-0.489 -8.57,-0.164 -2.454,0.328 -4.907,0.859 -5.719,1.308 -0.817,0.449 -1.633,0.981 -2,1.266 -0.367,0.285 -0.735,0.57 -1.063,0.531 -0.328,-0.043 -1.058,-0.531 -1.058,-0.531 0,0 -1.946,0 -3.075,0.011 -1.128,-0.011 -3.07,-0.011 -3.07,-0.011 0,0 -0.73,0.488 -1.058,0.531 -0.329,0.039 -0.696,-0.246 -1.063,-0.531 -0.371,-0.285 -1.184,-0.817 -2,-1.266 -0.816,-0.449 -3.266,-0.98 -5.719,-1.308 -2.449,-0.325 -6.777,-0.079 -8.574,0.164 -1.793,0.246 -5.719,1.675 -7.633,2.429 -1.922,0.758 -3.758,1.203 -3.758,1.203 0,0 -1.468,0.411 -1.507,0.817 -0.043,0.41 0.324,3.797 0.324,3.797 0,0 1.551,0.41 2.449,0.738 0.899,0.324 1.309,0.898 1.961,2.164 0.652,1.59 2.445,6.043 3.594,7.715 1.14,1.676 3.715,2.734 7.062,3.512 6.168,0.488 8.371,-0.899 10.371,-1.961 2,-1.059 3.184,-3.594 3.879,-4.817 0.696,-1.226 1.875,-6.082 1.961,-6.492 0.078,-0.41 -0.183,-0.836 -0.41,-1.164 -0.223,-0.324 -0.43,-1 -0.348,-1.469 0.082,-0.469 0.329,-0.98 1.348,-1.328 0.648,-0.219 1.59,-0.316 2.191,-0.359 0.606,0.043 1.547,0.14 2.196,0.359 1.019,0.348 1.261,0.859 1.344,1.328 0.085,0.469 -0.122,1.145 -0.344,1.469 -0.227,0.328 -0.492,0.754 -0.41,1.164 0.082,0.41 1.265,5.266 1.961,6.492 0.691,1.223 1.878,3.758 3.878,4.817 2,1.062 4.208,2.449 10.372,1.961 3.347,-0.778 5.921,-1.836 7.062,-3.512 1.145,-1.672 2.941,-6.125 3.594,-7.715 0.652,-1.266 1.058,-1.84 1.961,-2.164 0.894,-0.328 2.449,-0.738 2.449,-0.738 0,0 0.367,-3.387 0.324,-3.797"
                     style="fill:#191009;fill-opacity:1;fill-rule:nonzero;stroke:none"
                     id="path1933" />
                </g>
              </g>
            </g>
          </g>
        </g>
      </g>
    </g>
  </g>
</svg>
