<?xml version="1.0" encoding="UTF-8" standalone="no"?>
<!-- Created with Inkscape (http://www.inkscape.org/) -->

<svg
   width="61mm"
   height="61mm"
   viewBox="0 0 61 61"
   version="1.1"
   id="svg2192"
   xmlns="http://www.w3.org/2000/svg"
   xmlns:svg="http://www.w3.org/2000/svg">
  <defs
     id="defs2189">
    <clipPath
       clipPathUnits="userSpaceOnUse"
       id="clipPath2071">
      <path
         d="M 67,68 H 238 V 239 H 67 Z"
         id="path2069" />
    </clipPath>
    <clipPath
       clipPathUnits="userSpaceOnUse"
       id="clipPath2077">
      <path
         d="m 67.188,153.316 c 0,46.946 38.054,85.004 85,85.004 46.945,0 85,-38.058 85,-85.004 0,-46.941 -38.055,-85 -85,-85 -46.946,0 -85,38.059 -85,85"
         id="path2075" />
    </clipPath>
    <clipPath
       clipPathUnits="userSpaceOnUse"
       id="clipPath2087">
      <path
         d="M 0,0 H 801 V 801 H 0 Z"
         id="path2085" />
    </clipPath>
    <clipPath
       clipPathUnits="userSpaceOnUse"
       id="clipPath2059">
      <path
         d="M 0,0 H 801 V 801 H 0 Z"
         id="path2057" />
    </clipPath>
    <clipPath
       clipPathUnits="userSpaceOnUse"
       id="clipPath1523">
      <path
         d="M 315,68 H 485 V 239 H 315 Z"
         id="path1521" />
    </clipPath>
    <clipPath
       clipPathUnits="userSpaceOnUse"
       id="clipPath1529">
      <path
         d="m 315,153.316 c 0,46.946 38.055,85.004 85,85.004 46.945,0 85,-38.058 85,-85.004 0,-46.941 -38.055,-85 -85,-85 -46.945,0 -85,38.059 -85,85"
         id="path1527" />
    </clipPath>
    <clipPath
       clipPathUnits="userSpaceOnUse"
       id="clipPath1537">
      <path
         d="M 0,0 H 801 V 801 H 0 Z"
         id="path1535" />
    </clipPath>
    <clipPath
       clipPathUnits="userSpaceOnUse"
       id="clipPath1541">
      <path
         d="m 372.238,152.656 h 11.043 v 27.809 h -11.043 z"
         id="path1539" />
    </clipPath>
    <clipPath
       clipPathUnits="userSpaceOnUse"
       id="clipPath1545">
      <path
         d="M 0,0 H 801 V 801 H 0 Z"
         id="path1543" />
    </clipPath>
    <clipPath
       clipPathUnits="userSpaceOnUse"
       id="clipPath1549">
      <path
         d="m 372.238,152.656 h 11.043 v 27.809 h -11.043 z"
         id="path1547" />
    </clipPath>
    <clipPath
       clipPathUnits="userSpaceOnUse"
       id="clipPath1553">
      <path
         d="M 0,0 H 801 V 801 H 0 Z"
         id="path1551" />
    </clipPath>
    <clipPath
       clipPathUnits="userSpaceOnUse"
       id="clipPath1557">
      <path
         d="m 412.062,150.66 h 11.402 v 29.406 h -11.402 z"
         id="path1555" />
    </clipPath>
    <clipPath
       clipPathUnits="userSpaceOnUse"
       id="clipPath1561">
      <path
         d="M 0,0 H 801 V 801 H 0 Z"
         id="path1559" />
    </clipPath>
    <clipPath
       clipPathUnits="userSpaceOnUse"
       id="clipPath1565">
      <path
         d="m 412.062,150.656 h 11.402 v 29.41 h -11.402 z"
         id="path1563" />
    </clipPath>
    <clipPath
       clipPathUnits="userSpaceOnUse"
       id="clipPath1569">
      <path
         d="M 0,0 H 801 V 801 H 0 Z"
         id="path1567" />
    </clipPath>
    <clipPath
       clipPathUnits="userSpaceOnUse"
       id="clipPath1573">
      <path
         d="m 367.738,154.387 h 9.379 v 25.461 h -9.379 z"
         id="path1571" />
    </clipPath>
    <clipPath
       clipPathUnits="userSpaceOnUse"
       id="clipPath1577">
      <path
         d="M 0,0 H 801 V 801 H 0 Z"
         id="path1575" />
    </clipPath>
    <clipPath
       clipPathUnits="userSpaceOnUse"
       id="clipPath1581">
      <path
         d="m 367.738,154.387 h 9.379 v 25.461 h -9.379 z"
         id="path1579" />
    </clipPath>
    <clipPath
       clipPathUnits="userSpaceOnUse"
       id="clipPath1585">
      <path
         d="M 0,0 H 801 V 801 H 0 Z"
         id="path1583" />
    </clipPath>
    <clipPath
       clipPathUnits="userSpaceOnUse"
       id="clipPath1589">
      <path
         d="m 405.746,151.125 h 10.91 v 26.945 h -10.91 z"
         id="path1587" />
    </clipPath>
    <clipPath
       clipPathUnits="userSpaceOnUse"
       id="clipPath1593">
      <path
         d="M 0,0 H 801 V 801 H 0 Z"
         id="path1591" />
    </clipPath>
    <clipPath
       clipPathUnits="userSpaceOnUse"
       id="clipPath1597">
      <path
         d="m 405.746,151.125 h 10.91 v 26.945 h -10.91 z"
         id="path1595" />
    </clipPath>
    <clipPath
       clipPathUnits="userSpaceOnUse"
       id="clipPath1601">
      <path
         d="M 0,0 H 801 V 801 H 0 Z"
         id="path1599" />
    </clipPath>
  </defs>
  <g
     id="layer1">
    <path
       d="m 60.785041,30.653628 c 0,-16.559742 -13.426369,-29.98611129 -29.98611,-29.98611129 -16.561152,0 -29.98610999,13.42636929 -29.98610999,29.98611129 0,16.561505 13.42495799,29.987521 29.98610999,29.987521 16.559741,0 29.98611,-13.426016 29.98611,-29.987521"
       style="fill:#0a6e90;fill-opacity:1;fill-rule:nonzero;stroke:none;stroke-width:0.352778"
       id="path1351" />
    <g
       id="g1517"
       transform="matrix(0.35277777,0,0,0.35277777,-110.29041,-23.438126)">
      <g
         id="g1519"
         clip-path="url(#clipPath1523)">
        <g
           id="g1525"
           clip-path="url(#clipPath1529)">
          <g
             id="g1531">
            <g
               id="g1533" />
            <g
               id="g1785">
              <g
                 clip-path="url(#clipPath1537)"
                 id="g1783">
                <g
                   id="g1665">
                  <path
                     d="m 402.859,184.766 c -21.918,0 -39.691,23.976 -39.691,53.554 h 79.387 c 0,-29.578 -17.77,-53.554 -39.696,-53.554"
                     style="fill:#f25a28;fill-opacity:1;fill-rule:nonzero;stroke:none"
                     id="path1603" />
                  <path
                     d="m 392.277,200.062 c 3.157,6.586 12.703,13.915 20.719,0 -0.488,-5.992 -6.367,-7.503 -10.144,-7.503 -7.278,0 -10.575,7.503 -10.575,7.503"
                     style="fill:#f5fefb;fill-opacity:1;fill-rule:nonzero;stroke:none"
                     id="path1605" />
                  <path
                     d="m 451.598,180.449 c -0.59,-0.429 -1.364,-0.844 -2.274,-1.226 0.242,0.148 0.465,0.281 0.676,0.402 0.59,0.258 1.125,0.535 1.598,0.824"
                     style="fill:#f6f3cf;fill-opacity:1;fill-rule:nonzero;stroke:none"
                     id="path1607" />
                  <path
                     d="m 451.598,180.449 c -0.473,-0.289 -1.008,-0.566 -1.598,-0.824 0.965,0.559 1.598,0.824 1.598,0.824"
                     style="fill:#f6f3cf;fill-opacity:1;fill-rule:nonzero;stroke:none"
                     id="path1609" />
                  <path
                     d="m 356.328,179.223 c -0.91,0.382 -1.683,0.797 -2.277,1.226 0.476,-0.289 1.011,-0.566 1.597,-0.824 0.215,-0.121 0.438,-0.254 0.68,-0.402"
                     style="fill:#f6f3cf;fill-opacity:1;fill-rule:nonzero;stroke:none"
                     id="path1611" />
                  <path
                     d="m 354.051,180.449 c 0,0 0.633,-0.265 1.597,-0.824 -0.586,0.258 -1.121,0.535 -1.597,0.824"
                     style="fill:#f6f3cf;fill-opacity:1;fill-rule:nonzero;stroke:none"
                     id="path1613" />
                  <path
                     d="m 417.41,136.199 c 7.528,-30.523 32.356,-41.211 32.356,-41.211 0,0 17.742,46.328 -16.18,57.371 z"
                     style="fill:#251f21;fill-opacity:1;fill-rule:nonzero;stroke:none"
                     id="path1615" />
                  <path
                     d="m 421.031,139.008 c 9.699,-28.996 25.227,-34.051 25.227,-34.051 0,0 13.422,27.688 -16.063,44.574 z"
                     style="fill:#f25a28;fill-opacity:1;fill-rule:nonzero;stroke:none"
                     id="path1617" />
                  <path
                     d="m 388.207,136.199 c -7.531,-30.523 -32.355,-41.211 -32.355,-41.211 0,0 -17.747,46.328 16.171,57.371 z"
                     style="fill:#251f21;fill-opacity:1;fill-rule:nonzero;stroke:none"
                     id="path1619" />
                  <path
                     d="m 384.582,139.008 c -9.695,-28.996 -25.227,-34.051 -25.227,-34.051 0,0 -13.421,27.688 16.063,44.574 z"
                     style="fill:#f25a28;fill-opacity:1;fill-rule:nonzero;stroke:none"
                     id="path1621" />
                  <path
                     d="m 412.992,200.062 c -0.949,-2.347 -2.703,-4.257 -4.902,-5.476 1.812,-2.941 7.867,-10.754 21.48,-15.293 10.055,-3.352 18.688,-1.238 22.012,1.156 0,0 -10.152,12.949 -38.59,19.613"
                     style="fill:#f5fefb;fill-opacity:1;fill-rule:nonzero;stroke:none"
                     id="path1623" />
                  <path
                     d="m 392.621,200.062 c 0.953,-2.347 2.703,-4.257 4.902,-5.476 -1.812,-2.941 -7.867,-10.754 -21.48,-15.293 -10.055,-3.352 -18.688,-1.238 -22.012,1.156 0,0 10.157,12.949 38.59,19.613"
                     style="fill:#f5fefb;fill-opacity:1;fill-rule:nonzero;stroke:none"
                     id="path1625" />
                  <path
                     d="m 440.043,167.082 c 0.023,-0.48 0.074,-0.953 0.074,-1.437 0,-20.602 -16.679,-37.305 -37.273,-37.344 v -0.004 c -0.016,0 -0.028,0 -0.035,0 -0.016,0 -0.028,0 -0.036,0 v 0.004 c -20.593,0.039 -37.277,16.742 -37.277,37.344 0,0.484 0.055,0.957 0.074,1.437 -1.73,7.047 -7.203,10.977 -9.941,12.547 4.262,-1.859 11.398,-2.676 20.414,-0.336 10.457,2.715 19.668,11.473 21.48,15.293 1.575,-0.875 3.36,-1.414 5.286,-1.422 1.921,0.008 3.711,0.547 5.281,1.422 1.812,-3.82 11.019,-12.578 21.48,-15.293 9.016,-2.34 16.153,-1.523 20.41,0.336 -2.734,-1.574 -8.207,-5.5 -9.937,-12.547"
                     style="fill:#f25a28;fill-opacity:1;fill-rule:nonzero;stroke:none"
                     id="path1627" />
                  <path
                     d="m 449.98,179.629 c 0.969,0.555 1.602,0.82 1.602,0.82 -0.477,-0.289 -1.012,-0.566 -1.602,-0.82"
                     style="fill:#f25a28;fill-opacity:1;fill-rule:nonzero;stroke:none"
                     id="path1629" />
                  <path
                     d="m 355.629,179.629 c -0.586,0.254 -1.121,0.531 -1.598,0.82 0,0 0.633,-0.265 1.598,-0.82"
                     style="fill:#f25a28;fill-opacity:1;fill-rule:nonzero;stroke:none"
                     id="path1631" />
                  <path
                     d="m 402.789,128.297 v 0.004 c 0.016,0 0.023,-0.004 0.035,-0.004 z"
                     style="fill:#e96332;fill-opacity:1;fill-rule:nonzero;stroke:none"
                     id="path1633" />
                  <path
                     d="m 397.527,194.555 c -0.004,0.004 -0.004,0.004 -0.004,0.004 0.008,0.007 0.012,0.019 0.016,0.027 0,-0.008 -0.008,-0.02 -0.012,-0.031"
                     style="fill:#07171b;fill-opacity:1;fill-rule:nonzero;stroke:none"
                     id="path1635" />
                  <path
                     d="m 402.859,128.297 h -0.031 c 0.012,0 0.02,0.004 0.031,0.004 z"
                     style="fill:#a84720;fill-opacity:1;fill-rule:nonzero;stroke:none"
                     id="path1637" />
                  <path
                     d="m 402.859,160.918 v -32.617 c -0.011,0 -0.019,-0.004 -0.031,-0.004 -0.016,0 -0.027,0.004 -0.039,0.004 v 32.625 c 0.023,0 0.051,-0.008 0.07,-0.008"
                     style="fill:#a84720;fill-opacity:1;fill-rule:nonzero;stroke:none"
                     id="path1639" />
                  <path
                     d="m 402.789,193.164 c 0.016,0 0.023,0 0.035,0 0.016,0 0.028,0 0.035,0 v -32.246 c -0.019,0 -0.047,0.008 -0.07,0.008 z"
                     style="fill:#a84720;fill-opacity:1;fill-rule:nonzero;stroke:none"
                     id="path1641" />
                  <path
                     d="m 397.527,194.555 c 0.004,0.011 0.012,0.023 0.012,0.031 1.566,-0.867 3.336,-1.402 5.25,-1.418 v -0.004 c -1.918,0 -3.695,0.535 -5.262,1.391"
                     style="fill:#a84720;fill-opacity:1;fill-rule:nonzero;stroke:none"
                     id="path1643" />
                  <path
                     d="m 402.789,193.164 v 0.004 c 0.016,0 0.023,-0.004 0.035,-0.004 -0.012,0 -0.019,0 -0.035,0"
                     style="fill:#a84720;fill-opacity:1;fill-rule:nonzero;stroke:none"
                     id="path1645" />
                  <path
                     d="m 405.82,187.223 c 3.707,0 4.871,2.39 2.578,5.308 l -1.464,1.867 c -2.289,2.922 -6.039,2.922 -8.329,0 l -1.464,-1.867 c -2.293,-2.918 -1.129,-5.308 2.578,-5.308 z"
                     style="fill:#191009;fill-opacity:1;fill-rule:nonzero;stroke:none"
                     id="path1647" />
                  <path
                     d="m 391.398,199.469 c 0,0 6.43,2.011 11.227,-2.879 4.223,3.359 6.91,4.344 11.512,1.644 -4.699,5.168 -10.012,3.563 -11.645,3.18 -3.648,0.957 -10.133,0.742 -11.094,-1.945"
                     style="fill:#191009;fill-opacity:1;fill-rule:nonzero;stroke:none"
                     id="path1649" />
                  <path
                     d="m 381.348,160.066 c 0,0 12.398,-3.593 12.117,9.012 0,0 -12.117,4.402 -12.117,-9.012"
                     style="fill:#ffffff;fill-opacity:1;fill-rule:nonzero;stroke:none"
                     id="path1651" />
                  <path
                     d="m 391.211,163.977 c 0,1.66 -1.344,3.007 -3.008,3.007 -1.66,0 -3.004,-1.347 -3.004,-3.007 0,-1.661 1.344,-3.008 3.004,-3.008 1.664,0 3.008,1.347 3.008,3.008"
                     style="fill:#191009;fill-opacity:1;fill-rule:nonzero;stroke:none"
                     id="path1653" />
                  <path
                     d="m 390.203,162.84 c 0,0.39 -0.316,0.707 -0.703,0.707 -0.391,0 -0.707,-0.317 -0.707,-0.707 0,-0.391 0.316,-0.707 0.707,-0.707 0.387,0 0.703,0.316 0.703,0.707"
                     style="fill:#ffffff;fill-opacity:1;fill-rule:nonzero;stroke:none"
                     id="path1655" />
                  <path
                     d="m 423.926,160.066 c 0,0 -12.399,-3.593 -12.117,9.012 0,0 12.117,4.402 12.117,-9.012"
                     style="fill:#ffffff;fill-opacity:1;fill-rule:nonzero;stroke:none"
                     id="path1657" />
                  <path
                     d="m 413.793,163.977 c 0,1.66 1.348,3.007 3.012,3.007 1.656,0 3.004,-1.347 3.004,-3.007 0,-1.661 -1.348,-3.008 -3.004,-3.008 -1.664,0 -3.012,1.347 -3.012,3.008"
                     style="fill:#191009;fill-opacity:1;fill-rule:nonzero;stroke:none"
                     id="path1659" />
                  <path
                     d="m 414.688,162.566 c 0,0.391 0.316,0.704 0.703,0.704 0.394,0 0.707,-0.313 0.707,-0.704 0,-0.39 -0.313,-0.707 -0.707,-0.707 -0.387,0 -0.703,0.317 -0.703,0.707"
                     style="fill:#ffffff;fill-opacity:1;fill-rule:nonzero;stroke:none"
                     id="path1661" />
                  <path
                     d="m 417.566,206.809 c -2.066,-0.688 -12.363,5.234 -12.363,5.234 -0.625,-0.672 -1.535,-1.098 -2.547,-1.098 -1.019,0 -1.926,0.426 -2.551,1.098 0,0 -10.312,-6.246 -12.273,-5.094 -1.961,1.153 -2.035,13.356 0,14.559 2.027,1.203 12.465,-4.903 12.465,-4.903 0.613,0.563 1.441,0.907 2.359,0.907 0.914,0 1.742,-0.344 2.356,-0.903 0,0 10.781,6.329 12.465,4.899 1.687,-1.43 2.156,-14.016 0.089,-14.699"
                     style="fill:#000000;fill-opacity:1;fill-rule:nonzero;stroke:none"
                     id="path1663" />
                </g>
                <g
                   id="g1693">
                  <g
                     clip-path="url(#clipPath1541)"
                     id="g1691">
                    <g
                       id="g1689">
                      <g
                         id="g1667" />
                      <g
                         id="g1687">
                        <g
                           clip-path="url(#clipPath1545)"
                           opacity="0.5"
                           id="g1685">
                          <g
                             id="g1669" />
                          <g
                             id="g1683">
                            <g
                               clip-path="url(#clipPath1549)"
                               id="g1681">
                              <g
                                 id="g1679">
                                <g
                                   id="g1677">
                                <g
                                   clip-path="url(#clipPath1553)"
                                   id="g1675">
                                <g
                                   id="g1673">
                                <path
                                   d="m 372.238,153.762 7.758,26.57 3.285,0.133 -8.383,-27.809 z"
                                   style="fill:#e6e6e6;fill-opacity:1;fill-rule:nonzero;stroke:none"
                                   id="path1671" />
                                </g>
                                </g>
                                </g>
                              </g>
                            </g>
                          </g>
                        </g>
                      </g>
                    </g>
                  </g>
                </g>
                <g
                   id="g1721">
                  <g
                     clip-path="url(#clipPath1557)"
                     id="g1719">
                    <g
                       id="g1717">
                      <g
                         id="g1695" />
                      <g
                         id="g1715">
                        <g
                           clip-path="url(#clipPath1561)"
                           opacity="0.5"
                           id="g1713">
                          <g
                             id="g1697" />
                          <g
                             id="g1711">
                            <g
                               clip-path="url(#clipPath1565)"
                               id="g1709">
                              <g
                                 id="g1707">
                                <g
                                   id="g1705">
                                <g
                                   clip-path="url(#clipPath1569)"
                                   id="g1703">
                                <g
                                   id="g1701">
                                <path
                                   d="m 412.066,150.926 8.297,28.961 3.102,0.179 -8.383,-29.406 z"
                                   style="fill:#e6e6e6;fill-opacity:1;fill-rule:nonzero;stroke:none"
                                   id="path1699" />
                                </g>
                                </g>
                                </g>
                              </g>
                            </g>
                          </g>
                        </g>
                      </g>
                    </g>
                  </g>
                </g>
                <g
                   id="g1749">
                  <g
                     clip-path="url(#clipPath1573)"
                     id="g1747">
                    <g
                       id="g1745">
                      <g
                         id="g1723" />
                      <g
                         id="g1743">
                        <g
                           clip-path="url(#clipPath1577)"
                           opacity="0.5"
                           id="g1741">
                          <g
                             id="g1725" />
                          <g
                             id="g1739">
                            <g
                               clip-path="url(#clipPath1581)"
                               id="g1737">
                              <g
                                 id="g1735">
                                <g
                                   id="g1733">
                                <g
                                   clip-path="url(#clipPath1585)"
                                   id="g1731">
                                <g
                                   id="g1729">
                                <path
                                   d="m 369.445,154.387 h -0.007 c 0.066,1.211 -0.801,2.074 -1.372,3.187 -0.093,0.18 -0.207,0.321 -0.328,0.43 v 1.457 l 5.074,18.211 c 1.079,0.496 1.161,0.894 2.262,1.375 0.668,0.293 1.36,0.543 2.043,0.801 z"
                                   style="fill:#e6e6e6;fill-opacity:1;fill-rule:nonzero;stroke:none"
                                   id="path1727" />
                                </g>
                                </g>
                                </g>
                              </g>
                            </g>
                          </g>
                        </g>
                      </g>
                    </g>
                  </g>
                </g>
                <g
                   id="g1777">
                  <g
                     clip-path="url(#clipPath1589)"
                     id="g1775">
                    <g
                       id="g1773">
                      <g
                         id="g1751" />
                      <g
                         id="g1771">
                        <g
                           clip-path="url(#clipPath1593)"
                           opacity="0.5"
                           id="g1769">
                          <g
                             id="g1753" />
                          <g
                             id="g1767">
                            <g
                               clip-path="url(#clipPath1597)"
                               id="g1765">
                              <g
                                 id="g1763">
                                <g
                                   id="g1761">
                                <g
                                   clip-path="url(#clipPath1601)"
                                   id="g1759">
                                <g
                                   id="g1757">
                                <path
                                   d="m 405.746,152.125 7.914,24.348 2.996,1.597 -7.785,-26.945 z"
                                   style="fill:#e6e6e6;fill-opacity:1;fill-rule:nonzero;stroke:none"
                                   id="path1755" />
                                </g>
                                </g>
                                </g>
                              </g>
                            </g>
                          </g>
                        </g>
                      </g>
                    </g>
                  </g>
                </g>
                <g
                   id="g1781">
                  <path
                     d="m 432.66,176.777 c -2.351,2.793 -7.426,3.161 -10.836,2.719 -5.941,-1.289 -7.476,-3.601 -9.832,-6.18 -2.351,-2.57 -4.41,-7.941 -5.004,-10.589 -0.59,-2.649 -0.511,-7.356 0,-8.754 0.52,-1.395 2.653,-2.426 9.051,-2.868 6.399,-0.441 12.285,0.586 15.961,2.133 3.68,1.543 5.074,6.324 5.074,6.324 0,0 0.297,1.547 0.297,5.766 0,4.219 -2.355,8.652 -4.711,11.449 m -33.922,-14.05 c -0.593,2.648 -2.652,8.019 -5.008,10.589 -2.351,2.579 -3.886,4.891 -9.832,6.18 -3.406,0.442 -8.484,0.074 -10.836,-2.719 -2.355,-2.797 -4.707,-7.23 -4.707,-11.449 0,-4.219 0.293,-5.766 0.293,-5.766 0,0 1.399,-4.781 5.075,-6.324 3.679,-1.547 9.562,-2.574 15.965,-2.133 6.398,0.442 8.531,1.473 9.05,2.868 0.512,1.398 0.586,6.105 0,8.754 m 41.61,-1.325 c -0.258,-0.332 -0.7,-0.257 -0.918,-1.066 -0.219,-0.809 -2.282,-6.289 -4.563,-7.539 -2.277,-1.25 -6.64,-3.383 -17.234,-4.121 -8.192,-0.203 -13.149,-0.371 -14.563,-0.426 v -0.016 c 0,0 -0.07,0.004 -0.207,0.008 -0.14,-0.004 -0.211,-0.008 -0.211,-0.008 v 0.016 c -1.414,0.055 -6.371,0.223 -14.558,0.426 -10.594,0.738 -14.957,2.871 -17.239,4.121 -2.281,1.25 -4.339,6.73 -4.558,7.539 -0.223,0.809 -0.664,0.734 -0.918,1.066 -0.262,0.332 0.035,2.278 0.844,3.532 0.882,7.023 3.824,11.031 5.664,13.164 1.836,2.136 6.914,3.164 10.445,3.019 7.797,-1.324 9.117,-3.679 12.504,-6.992 3.383,-3.309 6.059,-12.355 6.449,-13.387 0.297,-0.777 1.172,-1.05 1.578,-1.136 0.403,0.086 1.278,0.359 1.575,1.136 0.398,1.032 3.07,10.078 6.453,13.387 3.382,3.313 4.707,5.668 12.504,6.992 3.531,0.145 8.605,-0.883 10.445,-3.019 1.84,-2.133 4.777,-6.141 5.664,-13.164 0.808,-1.254 1.101,-3.2 0.844,-3.532"
                     style="fill:#351905;fill-opacity:1;fill-rule:nonzero;stroke:none"
                     id="path1779" />
                </g>
              </g>
            </g>
          </g>
        </g>
      </g>
    </g>
  </g>
</svg>
