<?xml version="1.0" encoding="UTF-8" standalone="no"?>
<!-- Created with Inkscape (http://www.inkscape.org/) -->

<svg
   width="61mm"
   height="61mm"
   viewBox="0 0 61 61"
   version="1.1"
   id="svg2192"
   xmlns="http://www.w3.org/2000/svg"
   xmlns:svg="http://www.w3.org/2000/svg">
  <defs
     id="defs2189">
    <clipPath
       clipPathUnits="userSpaceOnUse"
       id="clipPath2071">
      <path
         d="M 67,68 H 238 V 239 H 67 Z"
         id="path2069" />
    </clipPath>
    <clipPath
       clipPathUnits="userSpaceOnUse"
       id="clipPath2077">
      <path
         d="m 67.188,153.316 c 0,46.946 38.054,85.004 85,85.004 46.945,0 85,-38.058 85,-85.004 0,-46.941 -38.055,-85 -85,-85 -46.946,0 -85,38.059 -85,85"
         id="path2075" />
    </clipPath>
    <clipPath
       clipPathUnits="userSpaceOnUse"
       id="clipPath2087">
      <path
         d="M 0,0 H 801 V 801 H 0 Z"
         id="path2085" />
    </clipPath>
    <clipPath
       clipPathUnits="userSpaceOnUse"
       id="clipPath2059">
      <path
         d="M 0,0 H 801 V 801 H 0 Z"
         id="path2057" />
    </clipPath>
  </defs>
  <g
     id="layer1">
    <g
       id="g2049"
       transform="matrix(0.35277777,0,0,0.35277777,-23.28406,-23.545369)">
      <g
         id="g2051">
        <g
           id="g2053">
          <g
             id="g2055"
             clip-path="url(#clipPath2059)">
            <g
               id="g2061">
              <path
                 d="m 237.188,153.316 c 0,-46.941 -38.055,-85 -85,-85 -46.946,0 -85,38.059 -85,85 0,46.946 38.054,85.004 85,85.004 46.945,0 85,-38.058 85,-85.004"
                 style="fill:#f9b44d;fill-opacity:1;fill-rule:nonzero;stroke:none"
                 id="path2063" />
            </g>
          </g>
        </g>
      </g>
    </g>
    <g
       id="g2065"
       transform="matrix(0.35277777,0,0,0.35277777,-23.247911,-23.473072)">
      <g
         id="g2067"
         clip-path="url(#clipPath2071)">
        <g
           id="g2073"
           clip-path="url(#clipPath2077)">
          <g
             id="g2079">
            <g
               id="g2081">
              <g
                 id="g2083"
                 clip-path="url(#clipPath2087)">
                <g
                   id="g2089">
                  <path
                     d="m 145.457,180.219 c -24.945,0 -45.168,26.011 -45.168,58.101 h 90.336 c 0,-22.062 -9.559,-41.25 -23.637,-51.086 -6.398,-4.472 -13.734,-7.015 -21.531,-7.015"
                     style="fill:#191009;fill-opacity:1;fill-rule:nonzero;stroke:none"
                     id="path2091" />
                  <path
                     d="m 124.742,183.957 20.715,54.363 22.266,-53.168"
                     style="fill:#f5f5f5;fill-opacity:1;fill-rule:nonzero;stroke:none"
                     id="path2093" />
                  <path
                     d="m 125.59,185.152 19.867,53.168 21.402,-51.175 13.289,3.449 -12.113,15.687 7.078,2.989 -29.656,29.05 -22.406,-22.207 5.543,-6.843 -13.629,-16.743 z"
                     style="fill:#434345;fill-opacity:1;fill-rule:nonzero;stroke:none"
                     id="path2095" />
                  <path
                     d="m 158.281,119.547 h -29.754 c -4.507,0 -15.101,6.539 -15.101,16.68 0,10.144 1.801,24.121 9.015,33.363 7.211,9.238 -2.707,22.988 20.965,22.988 23.668,0 13.75,-13.75 20.961,-22.988 7.211,-9.242 9.016,-23.219 9.016,-33.363 0,-10.141 -10.594,-16.68 -15.102,-16.68"
                     style="fill:#a5541c;fill-opacity:1;fill-rule:nonzero;stroke:none"
                     id="path2097" />
                  <path
                     d="m 140.957,123.434 c 0,0 -0.301,21.64 -6.312,30.961 -6.008,9.316 -18.333,33.058 -6.911,36.363 11.418,3.308 12.621,-8.715 16.528,-8.715 3.906,0 6.242,10.148 18.031,7.812 9.844,-1.949 3.48,-20.8 -6.875,-35.039 -9.375,-12.886 -8.148,-31.382 -8.148,-31.382 z"
                     style="fill:#fefefe;fill-opacity:1;fill-rule:nonzero;stroke:none"
                     id="path2099" />
                  <path
                     d="m 170.359,138.691 c -0.605,0 -1.097,-0.121 -1.097,-0.269 0,-0.152 0.492,-0.274 1.097,-0.274 0.606,0 1.094,0.122 1.094,0.274 0,0.148 -0.488,0.269 -1.094,0.269 m -1.894,5.321 c -0.051,1.98 -0.383,3.91 -1.086,5.765 -0.289,0.75 -0.672,1.446 -1.254,2.008 -0.648,0.633 -1.457,0.965 -2.316,1.195 -1.075,0.293 -2.18,0.364 -3.289,0.372 -1.676,0.015 -3.329,-0.192 -4.965,-0.54 -1.621,-0.347 -2.918,-1.195 -3.942,-2.48 -1.32,-1.648 -2.164,-3.52 -2.64,-5.57 -0.219,-0.946 -0.403,-1.895 -0.379,-2.875 0.011,-0.418 0.054,-0.844 0.129,-1.258 0.191,-1.031 0.824,-1.707 1.777,-2.094 0.961,-0.387 1.965,-0.625 2.977,-0.824 1.125,-0.227 2.261,-0.395 3.406,-0.465 0.898,-0.058 1.793,-0.086 2.402,-0.109 2.395,0.117 4.496,0.293 6.535,0.875 0.375,0.105 0.735,0.277 1.086,0.445 0.34,0.156 0.598,0.414 0.766,0.746 0.183,0.371 0.371,0.738 0.516,1.125 0.175,0.449 0.21,0.934 0.23,1.41 0.027,0.758 0.066,1.52 0.047,2.274 m -29.348,0.609 c -0.387,1.637 -1.019,3.172 -1.867,4.621 -0.465,0.793 -0.992,1.535 -1.66,2.172 -0.879,0.84 -1.938,1.336 -3.102,1.641 -2.355,0.617 -4.738,0.769 -7.144,0.41 -0.473,-0.074 -0.942,-0.195 -1.403,-0.313 -0.961,-0.246 -1.683,-0.804 -2.238,-1.625 -0.609,-0.91 -0.984,-1.91 -1.234,-2.965 -0.328,-1.374 -0.512,-2.777 -0.649,-4.183 -0.082,-0.817 -0.066,-1.629 0.032,-2.441 0.054,-0.411 0.086,-0.825 0.175,-1.223 0.328,-1.426 1.207,-2.332 2.625,-2.699 1.289,-0.34 2.606,-0.539 3.938,-0.649 0.984,-0.078 1.972,-0.121 2.609,-0.156 2.266,0.027 4.172,0.172 6.047,0.605 0.762,0.172 1.539,0.332 2.238,0.704 0.344,0.183 0.68,0.402 0.981,0.652 0.496,0.406 0.75,0.965 0.855,1.594 0.219,1.3 0.094,2.582 -0.203,3.855 m -21.211,-5.93 c -0.605,0 -1.097,-0.121 -1.097,-0.269 0,-0.152 0.492,-0.274 1.097,-0.274 0.61,0 1.098,0.122 1.098,0.274 0,0.148 -0.488,0.269 -1.098,0.269 m 54.785,-1.777 c -0.011,-0.18 -0.097,-0.297 -0.273,-0.34 -0.125,-0.031 -0.25,-0.066 -0.375,-0.086 -1.781,-0.281 -3.57,-0.554 -5.371,-0.679 -1.445,-0.102 -2.883,-0.164 -4.328,-0.231 -2.778,-0.125 -5.547,-0.062 -8.309,0.285 -1.687,0.215 -3.363,0.52 -4.98,1.043 -0.825,0.27 -1.629,0.578 -2.45,0.836 -1.285,0.406 -2.597,0.59 -3.929,0.34 -0.797,-0.148 -1.586,-0.379 -2.364,-0.629 -1.398,-0.453 -2.804,-0.902 -4.257,-1.168 -2.832,-0.523 -5.684,-0.765 -8.34,-0.734 -2.168,0.004 -4.113,0.078 -6.055,0.308 -1.586,0.192 -3.176,0.403 -4.765,0.621 -0.336,0.043 -0.668,0.145 -0.997,0.231 -0.175,0.047 -0.293,0.164 -0.296,0.359 -0.036,0.938 -0.067,1.875 -0.09,2.817 -0.004,0.14 0.031,0.281 0.054,0.422 0.016,0.121 0.082,0.203 0.196,0.253 0.121,0.051 0.246,0.106 0.355,0.18 0.52,0.363 0.77,0.914 0.973,1.485 0.14,0.406 0.234,0.832 0.348,1.246 0.074,0.257 0.175,0.515 0.234,0.773 0.273,1.227 0.531,2.457 0.808,3.68 0.274,1.164 0.622,2.304 1.18,3.371 0.621,1.191 1.512,2.105 2.77,2.629 0.765,0.32 1.558,0.523 2.371,0.652 1.457,0.227 2.926,0.258 4.398,0.149 1.489,-0.106 2.957,-0.332 4.391,-0.766 1.062,-0.32 2.07,-0.77 2.922,-1.496 1.304,-1.11 2.355,-2.43 3.16,-3.942 0.805,-1.511 1.367,-3.121 1.875,-4.75 0.148,-0.464 0.285,-0.937 0.453,-1.394 0.25,-0.676 0.73,-1.094 1.457,-1.207 0.227,-0.035 0.469,-0.043 0.699,-0.031 0.543,0.031 1.063,0.148 1.422,0.597 0.156,0.2 0.301,0.414 0.406,0.645 0.196,0.449 0.383,0.902 0.532,1.371 0.636,2.012 1.48,3.93 2.543,5.754 0.886,1.512 2.054,2.734 3.601,3.578 1.094,0.598 2.262,0.976 3.485,1.215 1.832,0.355 3.683,0.445 5.546,0.363 1.125,-0.051 2.235,-0.191 3.317,-0.516 1.113,-0.332 2.086,-0.875 2.816,-1.8 0.473,-0.602 0.824,-1.266 1.11,-1.969 0.609,-1.477 0.996,-3.02 1.351,-4.574 0.172,-0.758 0.348,-1.52 0.535,-2.278 0.098,-0.394 0.219,-0.785 0.328,-1.175 0.102,-0.368 0.192,-0.743 0.426,-1.059 0.231,-0.32 0.469,-0.633 0.86,-0.773 0.171,-0.059 0.257,-0.18 0.293,-0.34 0.027,-0.125 0.058,-0.254 0.058,-0.379 0,-0.559 0,-1.121 -0.015,-1.68 -0.012,-0.402 -0.055,-0.805 -0.079,-1.207"
                     style="fill:#000000;fill-opacity:1;fill-rule:nonzero;stroke:none"
                     id="path2101" />
                  <path
                     d="m 165.547,140.492 c 0,0 -10.508,-3.047 -10.27,7.641 0,0 10.27,3.73 10.27,-7.641"
                     style="fill:#ffffff;fill-opacity:1;fill-rule:nonzero;stroke:none"
                     id="path2103" />
                  <path
                     d="m 156.965,143.809 c 0,1.402 1.14,2.546 2.547,2.546 1.402,0 2.547,-1.144 2.547,-2.546 0,-1.411 -1.145,-2.551 -2.547,-2.551 -1.407,0 -2.547,1.14 -2.547,2.551"
                     style="fill:#191009;fill-opacity:1;fill-rule:nonzero;stroke:none"
                     id="path2105" />
                  <path
                     d="m 158.316,143.57 c 0,0.332 0.266,0.598 0.598,0.598 0.332,0 0.594,-0.266 0.594,-0.598 0,-0.332 -0.262,-0.597 -0.594,-0.597 -0.332,0 -0.598,0.265 -0.598,0.597"
                     style="fill:#ffffff;fill-opacity:1;fill-rule:nonzero;stroke:none"
                     id="path2107" />
                  <path
                     d="m 124.703,140.492 c 0,0 10.508,-3.047 10.27,7.641 0,0 -10.27,3.73 -10.27,-7.641"
                     style="fill:#ffffff;fill-opacity:1;fill-rule:nonzero;stroke:none"
                     id="path2109" />
                  <path
                     d="m 133.289,143.809 c 0,1.402 -1.141,2.546 -2.551,2.546 -1.406,0 -2.547,-1.144 -2.547,-2.546 0,-1.411 1.141,-2.551 2.547,-2.551 1.41,0 2.551,1.14 2.551,2.551"
                     style="fill:#191009;fill-opacity:1;fill-rule:nonzero;stroke:none"
                     id="path2111" />
                  <path
                     d="m 131.934,143.57 c 0,0.332 -0.266,0.598 -0.598,0.598 -0.328,0 -0.594,-0.266 -0.594,-0.598 0,-0.332 0.266,-0.597 0.594,-0.597 0.332,0 0.598,0.265 0.598,0.597"
                     style="fill:#ffffff;fill-opacity:1;fill-rule:nonzero;stroke:none"
                     id="path2113" />
                  <path
                     d="m 124.898,120.66 c 0,0 -28.144,8.692 -26.699,31.61 1.442,22.921 7.09,34.738 14.805,34.859 7.719,0.117 11.516,-6.664 9.476,-27.461 -2.039,-20.797 2.418,-39.008 2.418,-39.008"
                     style="fill:#883e10;fill-opacity:1;fill-rule:nonzero;stroke:none"
                     id="path2115" />
                  <path
                     d="m 162.465,120.66 c 0,0 28.144,8.692 26.699,31.61 -1.441,22.921 -7.09,34.738 -14.805,34.859 -7.718,0.117 -8.238,-6.871 -6.203,-27.668 2.039,-20.797 -5.691,-38.801 -5.691,-38.801"
                     style="fill:#883e10;fill-opacity:1;fill-rule:nonzero;stroke:none"
                     id="path2117" />
                  <path
                     d="m 147.98,173.16 c 3.477,0 4.567,2.238 2.418,4.973 l -1.371,1.75 c -2.148,2.734 -5.656,2.734 -7.804,0 l -1.371,-1.75 c -2.149,-2.735 -1.059,-4.973 2.414,-4.973 z"
                     style="fill:#191009;fill-opacity:1;fill-rule:nonzero;stroke:none"
                     id="path2119" />
                  <path
                     d="m 145.125,181.98 c 0,0 -5.254,-0.664 -6.836,3.079 -1.586,3.742 -5.598,7.742 -8.062,6.332 -3.539,-2.02 -2.016,-6.332 1.296,-7.34 -2.304,-2.301 -8.636,3.484 -3.812,8.039 5.051,4.777 14.969,-0.266 17.414,-5.52 z"
                     style="fill:#191009;fill-opacity:1;fill-rule:nonzero;stroke:none"
                     id="path2121" />
                  <path
                     d="m 145.125,181.98 c 0,0 5.254,-0.664 6.836,3.079 1.586,3.742 5.601,7.742 8.062,6.332 3.539,-2.02 2.016,-6.332 -1.296,-7.34 2.3,-2.301 8.636,3.484 3.812,8.039 -5.051,4.777 -14.965,-0.266 -17.414,-5.52 z"
                     style="fill:#191009;fill-opacity:1;fill-rule:nonzero;stroke:none"
                     id="path2123" />
                  <path
                     d="m 175.012,114.055 c -1.18,-13.121 -13.95,-4.965 -13.95,-4.965 V 96.914 c 0,-13.008 -14.351,-5.676 -15.843,-5.676 -1.489,0 -15.84,-7.332 -15.84,5.676 v 12.176 c 0,0 -12.77,-8.156 -13.953,4.965 -1.18,13.125 11.941,13.242 11.941,13.242 h 35.707 c 0,0 13.121,-0.117 11.938,-13.242"
                     style="fill:#000000;fill-opacity:1;fill-rule:nonzero;stroke:none"
                     id="path2125" />
                  <path
                     d="m 161.059,109.09 c 0,0 -1.602,4.875 -15.84,4.875 -14.235,0 -15.84,-4.875 -15.84,-4.875 0,0 -3.18,3.609 -1.067,6.976 2.602,4.137 9.649,5.321 16.907,5.321 7.258,0 14.308,-1.184 16.906,-5.321 2.117,-3.367 -1.066,-6.976 -1.066,-6.976"
                     style="fill:#ffffff;fill-opacity:1;fill-rule:nonzero;stroke:none"
                     id="path2127" />
                </g>
              </g>
            </g>
          </g>
        </g>
      </g>
    </g>
  </g>
</svg>
