<?xml version="1.0" encoding="UTF-8" standalone="no"?>
<!-- Created with Inkscape (http://www.inkscape.org/) -->

<svg
   width="61mm"
   height="61mm"
   viewBox="0 0 61 61"
   version="1.1"
   id="svg2192"
   xmlns="http://www.w3.org/2000/svg"
   xmlns:svg="http://www.w3.org/2000/svg">
  <defs
     id="defs2189">
    <clipPath
       clipPathUnits="userSpaceOnUse"
       id="clipPath2071">
      <path
         d="M 67,68 H 238 V 239 H 67 Z"
         id="path2069" />
    </clipPath>
    <clipPath
       clipPathUnits="userSpaceOnUse"
       id="clipPath2077">
      <path
         d="m 67.188,153.316 c 0,46.946 38.054,85.004 85,85.004 46.945,0 85,-38.058 85,-85.004 0,-46.941 -38.055,-85 -85,-85 -46.946,0 -85,38.059 -85,85"
         id="path2075" />
    </clipPath>
    <clipPath
       clipPathUnits="userSpaceOnUse"
       id="clipPath2087">
      <path
         d="M 0,0 H 801 V 801 H 0 Z"
         id="path2085" />
    </clipPath>
    <clipPath
       clipPathUnits="userSpaceOnUse"
       id="clipPath2059">
      <path
         d="M 0,0 H 801 V 801 H 0 Z"
         id="path2057" />
    </clipPath>
    <clipPath
       clipPathUnits="userSpaceOnUse"
       id="clipPath1523">
      <path
         d="M 315,68 H 485 V 239 H 315 Z"
         id="path1521" />
    </clipPath>
    <clipPath
       clipPathUnits="userSpaceOnUse"
       id="clipPath1529">
      <path
         d="m 315,153.316 c 0,46.946 38.055,85.004 85,85.004 46.945,0 85,-38.058 85,-85.004 0,-46.941 -38.055,-85 -85,-85 -46.945,0 -85,38.059 -85,85"
         id="path1527" />
    </clipPath>
    <clipPath
       clipPathUnits="userSpaceOnUse"
       id="clipPath1537">
      <path
         d="M 0,0 H 801 V 801 H 0 Z"
         id="path1535" />
    </clipPath>
    <clipPath
       clipPathUnits="userSpaceOnUse"
       id="clipPath1541">
      <path
         d="m 372.238,152.656 h 11.043 v 27.809 h -11.043 z"
         id="path1539" />
    </clipPath>
    <clipPath
       clipPathUnits="userSpaceOnUse"
       id="clipPath1545">
      <path
         d="M 0,0 H 801 V 801 H 0 Z"
         id="path1543" />
    </clipPath>
    <clipPath
       clipPathUnits="userSpaceOnUse"
       id="clipPath1549">
      <path
         d="m 372.238,152.656 h 11.043 v 27.809 h -11.043 z"
         id="path1547" />
    </clipPath>
    <clipPath
       clipPathUnits="userSpaceOnUse"
       id="clipPath1553">
      <path
         d="M 0,0 H 801 V 801 H 0 Z"
         id="path1551" />
    </clipPath>
    <clipPath
       clipPathUnits="userSpaceOnUse"
       id="clipPath1557">
      <path
         d="m 412.062,150.66 h 11.402 v 29.406 h -11.402 z"
         id="path1555" />
    </clipPath>
    <clipPath
       clipPathUnits="userSpaceOnUse"
       id="clipPath1561">
      <path
         d="M 0,0 H 801 V 801 H 0 Z"
         id="path1559" />
    </clipPath>
    <clipPath
       clipPathUnits="userSpaceOnUse"
       id="clipPath1565">
      <path
         d="m 412.062,150.656 h 11.402 v 29.41 h -11.402 z"
         id="path1563" />
    </clipPath>
    <clipPath
       clipPathUnits="userSpaceOnUse"
       id="clipPath1569">
      <path
         d="M 0,0 H 801 V 801 H 0 Z"
         id="path1567" />
    </clipPath>
    <clipPath
       clipPathUnits="userSpaceOnUse"
       id="clipPath1573">
      <path
         d="m 367.738,154.387 h 9.379 v 25.461 h -9.379 z"
         id="path1571" />
    </clipPath>
    <clipPath
       clipPathUnits="userSpaceOnUse"
       id="clipPath1577">
      <path
         d="M 0,0 H 801 V 801 H 0 Z"
         id="path1575" />
    </clipPath>
    <clipPath
       clipPathUnits="userSpaceOnUse"
       id="clipPath1581">
      <path
         d="m 367.738,154.387 h 9.379 v 25.461 h -9.379 z"
         id="path1579" />
    </clipPath>
    <clipPath
       clipPathUnits="userSpaceOnUse"
       id="clipPath1585">
      <path
         d="M 0,0 H 801 V 801 H 0 Z"
         id="path1583" />
    </clipPath>
    <clipPath
       clipPathUnits="userSpaceOnUse"
       id="clipPath1589">
      <path
         d="m 405.746,151.125 h 10.91 v 26.945 h -10.91 z"
         id="path1587" />
    </clipPath>
    <clipPath
       clipPathUnits="userSpaceOnUse"
       id="clipPath1593">
      <path
         d="M 0,0 H 801 V 801 H 0 Z"
         id="path1591" />
    </clipPath>
    <clipPath
       clipPathUnits="userSpaceOnUse"
       id="clipPath1597">
      <path
         d="m 405.746,151.125 h 10.91 v 26.945 h -10.91 z"
         id="path1595" />
    </clipPath>
    <clipPath
       clipPathUnits="userSpaceOnUse"
       id="clipPath1601">
      <path
         d="M 0,0 H 801 V 801 H 0 Z"
         id="path1599" />
    </clipPath>
    <clipPath
       clipPathUnits="userSpaceOnUse"
       id="clipPath1435">
      <path
         d="M 563,68 H 734 V 239 H 563 Z"
         id="path1433" />
    </clipPath>
    <clipPath
       clipPathUnits="userSpaceOnUse"
       id="clipPath1441">
      <path
         d="m 563.395,153.316 c 0,46.946 38.054,85.004 84.996,85.004 46.945,0 85.004,-38.058 85.004,-85.004 0,-46.941 -38.059,-85 -85.004,-85 -46.942,0 -84.996,38.059 -84.996,85"
         id="path1439" />
    </clipPath>
    <clipPath
       clipPathUnits="userSpaceOnUse"
       id="clipPath1451">
      <path
         d="M 0,0 H 801 V 801 H 0 Z"
         id="path1449" />
    </clipPath>
    <clipPath
       clipPathUnits="userSpaceOnUse"
       id="clipPath1509">
      <path
         d="M 0,0 H 801 V 801 H 0 Z"
         id="path1507" />
    </clipPath>
    <clipPath
       clipPathUnits="userSpaceOnUse"
       id="clipPath1869">
      <path
         d="M 67,288 H 238 V 459 H 67 Z"
         id="path1867" />
    </clipPath>
    <clipPath
       clipPathUnits="userSpaceOnUse"
       id="clipPath1875">
      <path
         d="m 67.188,373.852 c 0,46.945 38.054,85 85,85 46.945,0 85,-38.055 85,-85 0,-46.946 -38.055,-85 -85,-85 -46.946,0 -85,38.054 -85,85"
         id="path1873" />
    </clipPath>
    <clipPath
       clipPathUnits="userSpaceOnUse"
       id="clipPath1885">
      <path
         d="M 0,0 H 801 V 801 H 0 Z"
         id="path1883" />
    </clipPath>
    <clipPath
       clipPathUnits="userSpaceOnUse"
       id="clipPath2135">
      <path
         d="M 315,288 H 485 V 459 H 315 Z"
         id="path2133" />
    </clipPath>
    <clipPath
       clipPathUnits="userSpaceOnUse"
       id="clipPath2141">
      <path
         d="m 315,373.852 c 0,46.945 38.055,85 85,85 46.945,0 85,-38.055 85,-85 0,-46.946 -38.055,-85 -85,-85 -46.945,0 -85,38.054 -85,85"
         id="path2139" />
    </clipPath>
    <clipPath
       clipPathUnits="userSpaceOnUse"
       id="clipPath2151">
      <path
         d="M 0,0 H 801 V 801 H 0 Z"
         id="path2149" />
    </clipPath>
    <clipPath
       clipPathUnits="userSpaceOnUse"
       id="clipPath1371">
      <path
         d="M 563,288 H 734 V 459 H 563 Z"
         id="path1369" />
    </clipPath>
    <clipPath
       clipPathUnits="userSpaceOnUse"
       id="clipPath1377">
      <path
         d="m 563.395,373.852 c 0,46.945 38.054,85 84.996,85 46.945,0 85.004,-38.055 85.004,-85 0,-46.946 -38.059,-85 -85.004,-85 -46.942,0 -84.996,38.054 -84.996,85"
         id="path1375" />
    </clipPath>
    <clipPath
       clipPathUnits="userSpaceOnUse"
       id="clipPath1387">
      <path
         d="M 0,0 H 801 V 801 H 0 Z"
         id="path1385" />
    </clipPath>
    <clipPath
       clipPathUnits="userSpaceOnUse"
       id="clipPath1941">
      <path
         d="M 67,510 H 238 V 681 H 67 Z"
         id="path1939" />
    </clipPath>
    <clipPath
       clipPathUnits="userSpaceOnUse"
       id="clipPath1947">
      <path
         d="m 67.188,595.414 c 0,46.945 38.054,85.004 85,85.004 46.945,0 85,-38.059 85,-85.004 0,-46.941 -38.055,-85 -85,-85 -46.946,0 -85,38.059 -85,85"
         id="path1945" />
    </clipPath>
    <clipPath
       clipPathUnits="userSpaceOnUse"
       id="clipPath1957">
      <path
         d="M 0,0 H 801 V 801 H 0 Z"
         id="path1955" />
    </clipPath>
    <clipPath
       clipPathUnits="userSpaceOnUse"
       id="clipPath2001">
      <path
         d="M 315,510 H 485 V 681 H 315 Z"
         id="path1999" />
    </clipPath>
    <clipPath
       clipPathUnits="userSpaceOnUse"
       id="clipPath2007">
      <path
         d="m 315,595.414 c 0,46.945 38.055,85.004 84.996,85.004 46.949,0 85.004,-38.059 85.004,-85.004 0,-46.941 -38.055,-85 -85.004,-85 -46.941,0 -84.996,38.059 -84.996,85"
         id="path2005" />
    </clipPath>
    <clipPath
       clipPathUnits="userSpaceOnUse"
       id="clipPath2017">
      <path
         d="M 0,0 H 801 V 801 H 0 Z"
         id="path2015" />
    </clipPath>
  </defs>
  <g
     id="layer1">
    <path
       d="m 60.85734,30.509033 c 0,-16.559741 -13.424958,-29.98611008 -29.987521,-29.98611008 -16.559741,0 -29.98469908,13.42636908 -29.98469908,29.98611008 0,16.561153 13.42495808,29.987522 29.98469908,29.987522 16.562563,0 29.987521,-13.426369 29.987521,-29.987522"
       style="fill:#6980a2;fill-opacity:1;fill-rule:nonzero;stroke:none;stroke-width:0.352778"
       id="path1363" />
    <g
       id="g1995"
       transform="matrix(0.35277777,0,0,0.35277777,-110.07447,-179.45581)">
      <g
         id="g1997"
         clip-path="url(#clipPath2001)">
        <g
           id="g2003"
           clip-path="url(#clipPath2007)">
          <g
             id="g2009">
            <g
               id="g2011">
              <g
                 id="g2013"
                 clip-path="url(#clipPath2017)">
                <g
                   id="g2019">
                  <path
                     d="m 449.988,634.742 c -1.172,-3.672 -2.652,-7.242 -4.558,-10.363 -2.274,-3.734 -3.879,-7.852 -5.024,-11.871 -1.953,-6.871 -2.543,-13.469 -2.73,-17.414 0,-0.153 0.012,-0.301 0.012,-0.453 0,-0.684 -0.063,-1.348 -0.102,-2.02 -0.008,-0.805 0,-1.301 0,-1.301 l -0.059,0.09 c -1.64,-19.156 -17.683,-34.203 -37.265,-34.203 h -0.004 c -19.559,0 -35.598,15.012 -37.266,34.137 l -0.019,-0.024 c 0,0 0.004,0.11 0.007,0.285 -0.082,1.004 -0.156,2.008 -0.156,3.036 0,0.312 0.031,0.621 0.039,0.933 -0.211,3.77 -0.769,9.66 -2.41,15.875 -1.16,4.36 -2.84,8.875 -5.324,12.93 -1.805,2.953 -3.238,6.305 -4.387,9.762 -4.504,13.55 -4.519,28.789 -4.519,28.789 0.152,6.14 1.332,12.019 3.363,17.488 h 101.348 c 2.035,-5.488 3.218,-11.395 3.363,-17.559 0,0 -0.02,-14.746 -4.309,-28.117"
                     style="fill:#ffffff;fill-opacity:1;fill-rule:nonzero;stroke:none"
                     id="path2021" />
                  <path
                     d="m 456.734,647.961 c 0,-0.012 -0.004,-0.016 -0.004,-0.023 0.043,0.031 0.075,0.054 0.11,0.085 0.035,0.024 0.066,0.051 0.098,0.079 -0.063,-0.055 -0.141,-0.094 -0.204,-0.141"
                     style="fill:#b66916;fill-opacity:1;fill-rule:nonzero;stroke:none"
                     id="path2023" />
                  <path
                     d="m 405.086,516.496 c 2.102,4.945 2.957,9.512 3.801,13.426 0.414,2.031 0.816,3.199 1.285,5.121 0.433,2.019 0.84,4.453 0.93,7.019 0.226,5.145 -0.704,10.887 -2.914,16.012 -2.25,5.117 -5.594,9.703 -10.383,12.633 -0.895,-5.621 -1.192,-10 -1.547,-14 -0.328,-4 -0.613,-7.5 -0.75,-11.355 -0.086,-1.946 -0.098,-3.961 -0.047,-6.383 0.023,-2.524 0.406,-5.914 1.258,-8.457 1.679,-5.25 4.215,-9.867 8.367,-14.016"
                     style="fill:#940d0a;fill-opacity:1;fill-rule:nonzero;stroke:none"
                     id="path2025" />
                  <path
                     d="m 415.625,578.605 c -6.895,0 -12.813,3.981 -15.344,9.657 -0.008,-0.016 -0.015,-0.024 -0.019,-0.039 -2.543,-5.653 -8.446,-9.618 -15.328,-9.618 -9.196,0 -16.657,7.086 -16.657,15.829 0,8.742 7.461,15.82 16.657,15.82 6.882,0 12.785,1.004 15.328,-4.625 0.004,-0.012 0.011,-0.024 0.019,-0.043 2.531,5.68 8.449,4.668 15.344,4.668 9.199,0 16.66,-7.082 16.66,-15.82 0,-8.743 -7.461,-15.829 -16.66,-15.829"
                     style="fill:#f6e9e5;fill-opacity:1;fill-rule:nonzero;stroke:none"
                     id="path2027" />
                  <path
                     d="m 393.328,607.715 c 0,0 -24.07,61.394 -5.164,65.797 18.906,4.402 10.117,-50.11 9.664,-53.453"
                     style="fill:#940d0a;fill-opacity:1;fill-rule:nonzero;stroke:none"
                     id="path2029" />
                  <path
                     d="m 407.195,607.715 c 0,0 24.063,61.394 5.16,65.797 -18.906,4.402 -10.117,-50.11 -9.667,-53.453"
                     style="fill:#940d0a;fill-opacity:1;fill-rule:nonzero;stroke:none"
                     id="path2031" />
                  <path
                     d="m 407.648,607.871 -4.253,-2.055 c -0.856,-0.414 -1.989,-0.621 -3.114,-0.621 -1.133,0 -2.258,0.207 -3.113,0.621 l -4.254,2.055 c -1.711,0.824 -2.258,2.559 -1.203,3.848 l 6.656,8.179 c 0.531,0.649 1.223,0.965 1.914,0.965 0.688,0 1.379,-0.316 1.907,-0.965 l 6.664,-8.179 c 1.046,-1.289 0.507,-3.024 -1.204,-3.848"
                     style="fill:#fbdd58;fill-opacity:1;fill-rule:nonzero;stroke:none"
                     id="path2033" />
                  <path
                     d="m 380.035,591.055 c 0,0 12.399,-3.594 12.117,9.011 0,0 -12.117,4.399 -12.117,-9.011"
                     style="fill:#ffffff;fill-opacity:1;fill-rule:nonzero;stroke:none"
                     id="path2035" />
                  <path
                     d="m 389.414,595.668 c 0,1.66 -1.344,3.008 -3.008,3.008 -1.66,0 -3.004,-1.348 -3.004,-3.008 0,-1.66 1.344,-3.008 3.004,-3.008 1.664,0 3.008,1.348 3.008,3.008"
                     style="fill:#191009;fill-opacity:1;fill-rule:nonzero;stroke:none"
                     id="path2037" />
                  <path
                     d="m 388.445,594.273 c 0,0.387 -0.316,0.704 -0.703,0.704 -0.39,0 -0.707,-0.317 -0.707,-0.704 0,-0.394 0.317,-0.707 0.707,-0.707 0.387,0 0.703,0.313 0.703,0.707"
                     style="fill:#ffffff;fill-opacity:1;fill-rule:nonzero;stroke:none"
                     id="path2039" />
                  <path
                     d="m 422.613,591.055 c 0,0 -12.398,-3.594 -12.117,9.011 0,0 12.117,4.399 12.117,-9.011"
                     style="fill:#ffffff;fill-opacity:1;fill-rule:nonzero;stroke:none"
                     id="path2041" />
                  <path
                     d="m 412.484,595.668 c 0,1.66 1.344,3.008 3.008,3.008 1.656,0 3.004,-1.348 3.004,-3.008 0,-1.66 -1.348,-3.008 -3.004,-3.008 -1.664,0 -3.008,1.348 -3.008,3.008"
                     style="fill:#191009;fill-opacity:1;fill-rule:nonzero;stroke:none"
                     id="path2043" />
                  <path
                     d="m 413.57,594.777 c 0,0.391 0.317,0.707 0.703,0.707 0.395,0 0.707,-0.316 0.707,-0.707 0,-0.39 -0.312,-0.703 -0.707,-0.703 -0.386,0 -0.703,0.313 -0.703,0.703"
                     style="fill:#ffffff;fill-opacity:1;fill-rule:nonzero;stroke:none"
                     id="path2045" />
                  <path
                     d="m 393.652,600.453 c -1.797,5.059 -9.351,5.317 -10.847,5.317 -0.301,0 -0.586,-0.008 -0.852,-0.024 -6.707,-0.348 -11.504,-4.672 -15.562,-14.016 -0.848,-1.953 -0.969,-3.41 -0.368,-4.328 0.801,-1.214 3.016,-1.836 6.586,-1.836 2.762,0 5.832,0.368 8.543,0.688 0.657,0.078 1.282,0.152 1.875,0.219 6.637,0.734 10.524,2.14 11.875,4.3 1.399,2.231 0.196,5.614 -1.195,9.532 z m 13.215,0 -0.051,-0.148 c -0.804,-2.266 -1.543,-4.348 -1.754,-6.137 l 0.032,-0.035 c -0.016,-0.012 -0.028,-0.024 -0.039,-0.035 -0.145,-1.278 -0.016,-2.403 0.562,-3.325 1.356,-2.16 5.238,-3.566 11.875,-4.3 0.594,-0.067 1.223,-0.141 1.875,-0.219 2.711,-0.32 5.785,-0.688 8.543,-0.688 3.57,0 5.785,0.622 6.586,1.836 0.606,0.918 0.481,2.375 -0.367,4.328 -4.059,9.344 -8.856,13.668 -15.559,14.016 -0.269,0.016 -0.554,0.024 -0.855,0.024 -1.496,0 -9.051,-0.258 -10.848,-5.317 m 29.621,-14.355 c -0.379,-0.575 -0.875,-1.055 -1.5,-1.453 -1.535,-0.985 -3.84,-1.457 -7.078,-1.457 -2.902,0 -6.047,0.374 -8.824,0.703 -0.645,0.078 -1.266,0.152 -1.852,0.214 -7.617,0.844 -11.82,2.508 -13.632,5.407 -0.606,0.961 -0.899,1.988 -0.977,3.07 -1.699,-0.602 -3.375,-0.34 -4.719,0.223 -0.051,-1.164 -0.34,-2.266 -0.988,-3.293 -1.813,-2.899 -6.016,-4.563 -13.629,-5.407 -0.586,-0.062 -1.207,-0.136 -1.855,-0.214 -2.778,-0.329 -5.922,-0.703 -8.825,-0.703 -0.648,0 -1.257,0.023 -1.832,0.062 -3.461,0.227 -5.625,1.145 -6.742,2.848 -0.621,0.945 -0.847,2.09 -0.715,3.414 0.102,0.961 0.387,2.011 0.887,3.164 4.402,10.144 10.004,15.051 17.621,15.449 0.309,0.016 0.633,0.023 0.977,0.023 5.144,0 11.285,-1.812 13.093,-6.898 l 0.047,-0.148 c 0.684,-1.918 1.325,-3.723 1.68,-5.414 0.25,-0.188 0.68,-0.465 1.227,-0.696 0.894,-0.379 2.101,-0.597 3.359,0 0.207,0.098 0.41,0.211 0.617,0.356 0.336,1.789 1.02,3.707 1.742,5.754 l 0.051,0.148 c 1.813,5.086 7.949,6.898 13.094,6.898 0.344,0 0.672,-0.007 0.976,-0.023 7.621,-0.398 13.219,-5.305 17.621,-15.449 0.493,-1.129 0.778,-2.168 0.883,-3.121 0.145,-1.34 -0.082,-2.5 -0.707,-3.457"
                     style="fill:#26232c;fill-opacity:1;fill-rule:nonzero;stroke:none"
                     id="path2047" />
                </g>
              </g>
            </g>
          </g>
        </g>
      </g>
    </g>
  </g>
</svg>
